<svg xmlns="http://www.w3.org/2000/svg" xmlns:xlink="http://www.w3.org/1999/xlink" zoomAndPan="magnify" preserveAspectRatio="xMidYMid meet" version="1.0" viewBox="0.89 11.14 134.78 79.17"><defs><g></g><clipPath id="bfbd26cf3c"><path d="M 130 81 L 131 81 L 131 83 L 130 83 Z M 130 81 " clip-rule="nonzero"></path></clipPath><clipPath id="4564b2dadf"><path d="M 135.671875 12.832031 L 134.074219 89.035156 L 129.59375 88.941406 L 131.1875 12.738281 Z M 135.671875 12.832031 " clip-rule="nonzero"></path></clipPath><clipPath id="801422a4d6"><path d="M 135.671875 12.832031 L 134.074219 89.035156 L 129.59375 88.941406 L 131.1875 12.738281 Z M 135.671875 12.832031 " clip-rule="nonzero"></path></clipPath><clipPath id="aa83b150ac"><path d="M 130 13 L 134 13 L 134 89 L 130 89 Z M 130 13 " clip-rule="nonzero"></path></clipPath><clipPath id="a4abfe38b4"><path d="M 135.671875 12.832031 L 134.074219 89.035156 L 129.59375 88.941406 L 131.1875 12.738281 Z M 135.671875 12.832031 " clip-rule="nonzero"></path></clipPath><clipPath id="b3a2719eb7"><path d="M 135.671875 12.832031 L 134.074219 89.035156 L 129.59375 88.941406 L 131.1875 12.738281 Z M 135.671875 12.832031 " clip-rule="nonzero"></path></clipPath><clipPath id="5026074680"><path d="M 134 75 L 135 75 L 135 76 L 134 76 Z M 134 75 " clip-rule="nonzero"></path></clipPath><clipPath id="d32eda6f77"><path d="M 135.671875 12.832031 L 134.074219 89.035156 L 129.59375 88.941406 L 131.1875 12.738281 Z M 135.671875 12.832031 " clip-rule="nonzero"></path></clipPath><clipPath id="9410ecfa89"><path d="M 135.671875 12.832031 L 134.074219 89.035156 L 129.59375 88.941406 L 131.1875 12.738281 Z M 135.671875 12.832031 " clip-rule="nonzero"></path></clipPath><clipPath id="072d750ce1"><path d="M 134 76 L 135 76 L 135 77 L 134 77 Z M 134 76 " clip-rule="nonzero"></path></clipPath><clipPath id="9a04d0ddfc"><path d="M 135.671875 12.832031 L 134.074219 89.035156 L 129.59375 88.941406 L 131.1875 12.738281 Z M 135.671875 12.832031 " clip-rule="nonzero"></path></clipPath><clipPath id="bdc53feec4"><path d="M 135.671875 12.832031 L 134.074219 89.035156 L 129.59375 88.941406 L 131.1875 12.738281 Z M 135.671875 12.832031 " clip-rule="nonzero"></path></clipPath><clipPath id="272b849291"><path d="M 134 73 L 135 73 L 135 75 L 134 75 Z M 134 73 " clip-rule="nonzero"></path></clipPath><clipPath id="b44235c488"><path d="M 135.671875 12.832031 L 134.074219 89.035156 L 129.59375 88.941406 L 131.1875 12.738281 Z M 135.671875 12.832031 " clip-rule="nonzero"></path></clipPath><clipPath id="7b5774956c"><path d="M 135.671875 12.832031 L 134.074219 89.035156 L 129.59375 88.941406 L 131.1875 12.738281 Z M 135.671875 12.832031 " clip-rule="nonzero"></path></clipPath><clipPath id="a67dc872a2"><path d="M 9 11.335938 L 11 11.335938 L 11 12 L 9 12 Z M 9 11.335938 " clip-rule="nonzero"></path></clipPath><clipPath id="1ce116aa05"><path d="M 1 11.335938 L 101 11.335938 L 101 16.566406 L 1 16.566406 Z M 1 11.335938 " clip-rule="nonzero"></path></clipPath><clipPath id="5bb5a95d30"><path d="M 18 16 L 20 16 L 20 16.566406 L 18 16.566406 Z M 18 16 " clip-rule="nonzero"></path></clipPath><clipPath id="36dd499ade"><path d="M 17 16 L 18 16 L 18 16.566406 L 17 16.566406 Z M 17 16 " clip-rule="nonzero"></path></clipPath><clipPath id="945163524a"><path d="M 20 16 L 22 16 L 22 16.566406 L 20 16.566406 Z M 20 16 " clip-rule="nonzero"></path></clipPath><clipPath id="d0739911b4"><path d="M 9 82 L 11 82 L 11 84 L 9 84 Z M 9 82 " clip-rule="nonzero"></path></clipPath><clipPath id="314dfb85f9"><path d="M 101.746094 90.308594 L 0.890625 88.019531 L 1.011719 82.789062 L 101.867188 85.078125 Z M 101.746094 90.308594 " clip-rule="nonzero"></path></clipPath><clipPath id="f7d63a2fa6"><path d="M 101.746094 90.308594 L 0.890625 88.019531 L 1.011719 82.789062 L 101.867188 85.078125 Z M 101.746094 90.308594 " clip-rule="nonzero"></path></clipPath><clipPath id="d9a055a39d"><path d="M 1 82 L 101 82 L 101 88 L 1 88 Z M 1 82 " clip-rule="nonzero"></path></clipPath><clipPath id="d61313aa25"><path d="M 101.746094 90.308594 L 0.890625 88.019531 L 1.011719 82.789062 L 101.867188 85.078125 Z M 101.746094 90.308594 " clip-rule="nonzero"></path></clipPath><clipPath id="1c6d663ffc"><path d="M 101.746094 90.308594 L 0.890625 88.019531 L 1.011719 82.789062 L 101.867188 85.078125 Z M 101.746094 90.308594 " clip-rule="nonzero"></path></clipPath><clipPath id="52fd561e7c"><path d="M 18 88 L 20 88 L 20 89 L 18 89 Z M 18 88 " clip-rule="nonzero"></path></clipPath><clipPath id="9f1b3bfa14"><path d="M 101.746094 90.308594 L 0.890625 88.019531 L 1.011719 82.789062 L 101.867188 85.078125 Z M 101.746094 90.308594 " clip-rule="nonzero"></path></clipPath><clipPath id="db8dd8bb40"><path d="M 101.746094 90.308594 L 0.890625 88.019531 L 1.011719 82.789062 L 101.867188 85.078125 Z M 101.746094 90.308594 " clip-rule="nonzero"></path></clipPath><clipPath id="7e54b85efb"><path d="M 17 88 L 18 88 L 18 89 L 17 89 Z M 17 88 " clip-rule="nonzero"></path></clipPath><clipPath id="8c7447b535"><path d="M 101.746094 90.308594 L 0.890625 88.019531 L 1.011719 82.789062 L 101.867188 85.078125 Z M 101.746094 90.308594 " clip-rule="nonzero"></path></clipPath><clipPath id="1270dc9be3"><path d="M 101.746094 90.308594 L 0.890625 88.019531 L 1.011719 82.789062 L 101.867188 85.078125 Z M 101.746094 90.308594 " clip-rule="nonzero"></path></clipPath><clipPath id="d7ef54e84e"><path d="M 20 88 L 22 88 L 22 89 L 20 89 Z M 20 88 " clip-rule="nonzero"></path></clipPath><clipPath id="0a9540ae55"><path d="M 101.746094 90.308594 L 0.890625 88.019531 L 1.011719 82.789062 L 101.867188 85.078125 Z M 101.746094 90.308594 " clip-rule="nonzero"></path></clipPath><clipPath id="9a95eda391"><path d="M 101.746094 90.308594 L 0.890625 88.019531 L 1.011719 82.789062 L 101.867188 85.078125 Z M 101.746094 90.308594 " clip-rule="nonzero"></path></clipPath><clipPath id="5f1fbd8fd5"><path d="M 2 14 L 5 14 L 5 29 L 2 29 Z M 2 14 " clip-rule="nonzero"></path></clipPath><clipPath id="8808fcafe1"><path d="M 1.917969 28.886719 L 2.3125 14.695312 L 5.300781 14.777344 L 4.90625 28.96875 Z M 1.917969 28.886719 " clip-rule="nonzero"></path></clipPath><clipPath id="082164976d"><path d="M 1.917969 28.886719 L 2.3125 14.695312 L 5.300781 14.777344 L 4.90625 28.96875 Z M 1.917969 28.886719 " clip-rule="nonzero"></path></clipPath><clipPath id="06f7f94b27"><path d="M 3 70 L 6 70 L 6 85 L 3 85 Z M 3 70 " clip-rule="nonzero"></path></clipPath><clipPath id="23666d17c2"><path d="M 3.03125 84.796875 L 3.425781 70.605469 L 6.414062 70.6875 L 6.019531 84.878906 Z M 3.03125 84.796875 " clip-rule="nonzero"></path></clipPath><clipPath id="ef5f52a6b9"><path d="M 3.03125 84.796875 L 3.425781 70.605469 L 6.414062 70.6875 L 6.019531 84.878906 Z M 3.03125 84.796875 " clip-rule="nonzero"></path></clipPath></defs><path stroke-linecap="round" transform="matrix(0.747263, 0, 0, 0.747263, 2.282719, 12.703018)" fill="none" stroke-linejoin="miter" d="M 1.498301 1.500411 L 175.93703 1.500411 " stroke="#4d429a" stroke-width="3" stroke-opacity="1" stroke-miterlimit="4"></path><path stroke-linecap="round" transform="matrix(0.00000000130422, 0.747263, -0.747263, 0.00000000130422, 134.872372, 13.82728)" fill="none" stroke-linejoin="miter" d="M 1.501399 1.501977 L 96.556653 1.501977 " stroke="#4d429a" stroke-width="3" stroke-opacity="1" stroke-miterlimit="4"></path><path stroke-linecap="round" transform="matrix(0, 0.747263, -0.747263, 0, 4.148013, 13.826775)" fill="none" stroke-linejoin="miter" d="M 1.502074 1.499699 L 20.35212 1.499699 " stroke="#4d429a" stroke-width="3" stroke-opacity="1" stroke-miterlimit="4"></path><path stroke-linecap="round" transform="matrix(0.747263, 0, 0, 0.747263, 2.282719, 85.976531)" fill="none" stroke-linejoin="miter" d="M 1.498301 1.500309 L 175.93703 1.500309 " stroke="#493979" stroke-width="3" stroke-opacity="1" stroke-miterlimit="4"></path><path fill="#4d429a" d="M 4.523438 71.890625 L 4.523438 83.101562 C 4.523438 83.25 4.492188 83.394531 4.4375 83.53125 C 4.378906 83.667969 4.296875 83.789062 4.191406 83.894531 C 4.089844 84 3.96875 84.078125 3.828125 84.136719 C 3.691406 84.195312 3.550781 84.222656 3.402344 84.222656 C 3.253906 84.222656 3.109375 84.195312 2.972656 84.136719 C 2.835938 84.078125 2.714844 84 2.609375 83.894531 C 2.503906 83.789062 2.421875 83.667969 2.363281 83.53125 C 2.308594 83.394531 2.28125 83.25 2.28125 83.101562 L 2.28125 71.890625 C 2.28125 71.742188 2.308594 71.601562 2.363281 71.464844 C 2.421875 71.324219 2.503906 71.203125 2.609375 71.101562 C 2.714844 70.996094 2.835938 70.914062 2.972656 70.855469 C 3.109375 70.800781 3.253906 70.773438 3.402344 70.773438 C 3.550781 70.773438 3.691406 70.800781 3.828125 70.855469 C 3.96875 70.914062 4.089844 70.996094 4.191406 71.101562 C 4.296875 71.203125 4.378906 71.324219 4.4375 71.464844 C 4.492188 71.601562 4.523438 71.742188 4.523438 71.890625 Z M 4.523438 71.890625 " fill-opacity="1" fill-rule="nonzero"></path><g clip-path="url(#bfbd26cf3c)"><g clip-path="url(#4564b2dadf)"><g clip-path="url(#801422a4d6)"><path fill="#4d429a" d="M 130.457031 81.808594 C 130.40625 81.773438 130.335938 81.769531 130.246094 81.839844 C 130.195312 81.890625 130.160156 81.957031 130.121094 82.027344 C 130.050781 82.199219 130.1875 82.269531 130.253906 82.355469 C 130.269531 82.375 130.289062 82.410156 130.289062 82.425781 C 130.445312 82.242188 130.503906 82.035156 130.457031 81.808594 Z M 130.457031 81.808594 " fill-opacity="1" fill-rule="nonzero"></path></g></g></g><g clip-path="url(#aa83b150ac)"><g clip-path="url(#a4abfe38b4)"><g clip-path="url(#b3a2719eb7)"><path fill="#4d429a" d="M 132.691406 88.203125 C 132.828125 88.277344 132.96875 88.261719 132.902344 88.070312 C 132.839844 87.84375 132.929688 87.671875 133.003906 87.449219 C 133.183594 86.96875 133.421875 86.453125 133.429688 85.953125 C 133.441406 85.417969 133.726562 85.023438 133.824219 84.558594 C 133.9375 84.007812 134.003906 83.40625 133.875 82.882812 C 133.75 82.34375 134.003906 81.8125 133.820312 81.359375 C 133.589844 80.785156 133.757812 80.214844 133.820312 79.679688 C 133.882812 79.179688 133.582031 78.691406 133.90625 78.179688 C 134.011719 78.023438 133.691406 77.636719 133.664062 77.359375 C 133.621094 76.925781 133.59375 76.476562 133.691406 76.0625 C 133.820312 75.546875 133.796875 75.042969 133.773438 74.507812 C 133.734375 73.15625 133.726562 71.808594 133.738281 70.457031 C 133.734375 69.730469 133.835938 69.023438 133.816406 68.296875 C 133.75 66.636719 133.835938 64.976562 133.851562 63.332031 C 134.039062 61.882812 133.894531 60.429688 133.855469 58.972656 C 133.828125 57.953125 134.039062 56.9375 133.714844 55.925781 C 133.824219 55.582031 133.8125 55.253906 133.820312 54.890625 C 133.804688 53.246094 133.820312 51.585938 133.839844 49.945312 C 133.851562 49.25 133.9375 48.5625 133.742188 47.882812 C 133.613281 47.464844 133.65625 47.035156 133.820312 46.605469 C 134.003906 46.140625 133.960938 45.671875 133.695312 45.234375 C 133.664062 45.113281 133.597656 44.972656 133.632812 44.851562 C 133.933594 43.734375 133.855469 42.609375 133.703125 41.480469 C 133.675781 41.273438 133.59375 40.996094 133.683594 40.839844 C 133.953125 40.363281 133.738281 39.90625 133.746094 39.457031 C 133.757812 38.972656 133.820312 38.507812 133.707031 38.019531 C 133.644531 37.777344 133.632812 37.5 133.671875 37.242188 C 133.777344 36.378906 133.761719 35.515625 133.726562 34.648438 C 133.699219 33.472656 133.792969 32.296875 133.695312 31.117188 C 133.554688 29.558594 133.554688 27.984375 133.585938 26.429688 C 133.65625 23.160156 133.394531 19.902344 133.324219 16.628906 C 133.316406 16.285156 133.359375 15.851562 133.191406 15.605469 C 132.785156 15.046875 132.886719 14.40625 132.695312 13.554688 C 132.527344 17.566406 132.085938 21.277344 132.179688 25.03125 C 132.230469 26.761719 132.054688 28.507812 131.96875 30.234375 C 131.9375 30.890625 131.820312 31.546875 131.839844 32.1875 C 131.859375 33.710938 132 35.21875 131.710938 36.734375 C 131.652344 37.0625 131.660156 37.441406 131.722656 37.773438 C 131.800781 38.257812 131.753906 38.742188 131.660156 39.207031 C 131.527344 39.738281 132 40.21875 131.714844 40.746094 C 131.8125 41.699219 131.5 42.644531 131.757812 43.601562 C 131.746094 44.96875 131.335938 46.328125 131.585938 47.714844 C 131.351562 48.179688 131.597656 48.667969 131.554688 49.117188 C 131.511719 49.617188 131.449219 50.117188 131.417969 50.636719 C 131.386719 51.34375 131.5625 52.007812 131.566406 52.699219 C 131.582031 53.667969 131.042969 54.609375 131.472656 55.601562 C 131.179688 56.238281 131.425781 56.882812 131.449219 57.523438 C 131.457031 57.867188 131.503906 58.269531 131.339844 58.542969 C 131.054688 59.035156 131.164062 59.523438 131.207031 60.027344 C 131.21875 60.199219 131.355469 60.390625 131.300781 60.53125 C 130.96875 61.351562 131.351562 62.140625 131.351562 62.953125 C 131.074219 63.828125 130.953125 64.707031 131.261719 65.613281 C 131.351562 66.324219 131.09375 67.03125 131.21875 67.742188 C 131.246094 67.933594 131.121094 68.15625 131.066406 68.363281 C 131.027344 68.566406 130.9375 68.792969 130.964844 69 C 131.074219 69.625 130.855469 70.207031 130.859375 70.8125 C 130.863281 71.402344 130.9375 71.992188 130.875 72.597656 C 130.808594 73.148438 130.695312 73.734375 130.734375 74.253906 C 130.773438 74.859375 130.675781 75.480469 130.75 76.070312 C 130.867188 76.988281 130.882812 77.890625 130.742188 78.804688 C 130.621094 79.734375 130.910156 80.726562 130.375 81.617188 C 130.40625 81.6875 130.421875 81.753906 130.4375 81.824219 C 130.488281 81.84375 130.523438 81.894531 130.539062 81.929688 C 130.589844 82.035156 130.585938 82.175781 130.585938 82.296875 C 130.582031 82.363281 130.527344 82.449219 130.476562 82.5 C 130.335938 82.617188 130.300781 82.53125 130.269531 82.445312 C 130.234375 82.476562 130.214844 82.511719 130.179688 82.546875 C 130.128906 82.597656 130.210938 82.804688 130.277344 82.894531 C 130.429688 83.070312 130.511719 83.210938 130.472656 83.46875 C 130.410156 84.019531 130.449219 84.558594 130.300781 85.109375 C 130.09375 85.882812 130.304688 86.648438 130.511719 87.414062 C 130.574219 87.640625 130.726562 87.832031 130.972656 87.789062 C 131.578125 87.660156 131.425781 88.316406 131.734375 88.496094 C 132.050781 88.257812 132.300781 87.96875 132.691406 88.203125 Z M 132.265625 46.535156 C 132.300781 46.484375 132.355469 46.453125 132.390625 46.402344 C 132.355469 46.453125 132.300781 46.484375 132.265625 46.535156 Z M 132.152344 65.148438 C 132.121094 65.078125 132.085938 65.007812 132.054688 64.957031 C 132.085938 65.007812 132.121094 65.078125 132.152344 65.148438 Z M 132.261719 54.113281 C 132.277344 54.269531 132.273438 54.425781 132.289062 54.597656 C 132.273438 54.410156 132.261719 54.269531 132.261719 54.113281 Z M 132.203125 51.242188 C 132.238281 51.191406 132.292969 51.140625 132.308594 51.105469 C 132.289062 51.15625 132.238281 51.207031 132.203125 51.242188 Z M 132.203125 51.242188 " fill-opacity="1" fill-rule="nonzero"></path></g></g></g><g clip-path="url(#5026074680)"><g clip-path="url(#d32eda6f77)"><g clip-path="url(#9410ecfa89)"><path fill="#4d429a" d="M 134.226562 75.261719 C 134.207031 75.363281 134.222656 75.484375 134.21875 75.605469 C 134.269531 75.609375 134.324219 75.609375 134.324219 75.589844 C 134.34375 75.472656 134.363281 75.367188 134.347656 75.246094 C 134.332031 75.140625 134.261719 75.140625 134.226562 75.261719 Z M 134.226562 75.261719 " fill-opacity="1" fill-rule="nonzero"></path></g></g></g><g clip-path="url(#072d750ce1)"><g clip-path="url(#9a04d0ddfc)"><g clip-path="url(#bdc53feec4)"><path fill="#4d429a" d="M 134.292969 76.941406 C 134.3125 76.90625 134.3125 76.871094 134.332031 76.835938 C 134.332031 76.804688 134.316406 76.769531 134.316406 76.734375 C 134.296875 76.785156 134.261719 76.820312 134.261719 76.871094 C 134.242188 76.886719 134.277344 76.90625 134.292969 76.941406 Z M 134.292969 76.941406 " fill-opacity="1" fill-rule="nonzero"></path></g></g></g><g clip-path="url(#272b849291)"><g clip-path="url(#b44235c488)"><g clip-path="url(#7b5774956c)"><path fill="#4d429a" d="M 134.335938 74.15625 C 134.351562 74.121094 134.390625 74.089844 134.390625 74.070312 C 134.390625 74 134.375 73.914062 134.375 73.84375 C 134.359375 73.84375 134.324219 73.863281 134.324219 73.863281 C 134.320312 73.964844 134.335938 74.050781 134.335938 74.15625 Z M 134.335938 74.15625 " fill-opacity="1" fill-rule="nonzero"></path></g></g></g><g clip-path="url(#a67dc872a2)"><path fill="#4d429a" d="M 10.585938 11.59375 C 10.628906 11.523438 10.628906 11.433594 10.539062 11.320312 C 10.46875 11.25 10.378906 11.207031 10.289062 11.160156 C 10.058594 11.070312 9.96875 11.25 9.855469 11.34375 C 9.832031 11.367188 9.785156 11.386719 9.761719 11.386719 C 10.015625 11.59375 10.289062 11.664062 10.585938 11.59375 Z M 10.585938 11.59375 " fill-opacity="1" fill-rule="nonzero"></path></g><g clip-path="url(#1ce116aa05)"><path fill="#4d429a" d="M 2.210938 14.71875 C 2.117188 14.902344 2.140625 15.085938 2.390625 14.992188 C 2.6875 14.902344 2.917969 15.015625 3.214844 15.109375 C 3.851562 15.335938 4.539062 15.632812 5.199219 15.632812 C 5.90625 15.632812 6.429688 15.996094 7.046875 16.113281 C 7.777344 16.25 8.574219 16.316406 9.261719 16.136719 C 9.96875 15.953125 10.675781 16.273438 11.269531 16.019531 C 12.023438 15.703125 12.773438 15.90625 13.480469 15.976562 C 14.144531 16.042969 14.78125 15.632812 15.46875 16.042969 C 15.671875 16.179688 16.175781 15.746094 16.539062 15.703125 C 17.109375 15.632812 17.703125 15.585938 18.25 15.703125 C 18.9375 15.859375 19.597656 15.816406 20.304688 15.769531 C 22.085938 15.679688 23.863281 15.632812 25.644531 15.609375 C 26.601562 15.585938 27.539062 15.703125 28.496094 15.65625 C 30.6875 15.519531 32.878906 15.585938 35.046875 15.5625 C 36.964844 15.769531 38.878906 15.542969 40.796875 15.449219 C 42.144531 15.382812 43.488281 15.632812 44.8125 15.175781 C 45.269531 15.3125 45.703125 15.289062 46.183594 15.289062 C 48.351562 15.222656 50.539062 15.199219 52.707031 15.175781 C 53.621094 15.175781 54.535156 15.269531 55.421875 14.992188 C 55.972656 14.8125 56.542969 14.855469 57.113281 15.0625 C 57.726562 15.289062 58.34375 15.222656 58.914062 14.855469 C 59.074219 14.8125 59.257812 14.71875 59.417969 14.765625 C 60.898438 15.128906 62.382812 14.992188 63.867188 14.765625 C 64.140625 14.71875 64.503906 14.605469 64.710938 14.71875 C 65.351562 15.0625 65.941406 14.765625 66.535156 14.765625 C 67.175781 14.765625 67.792969 14.835938 68.429688 14.675781 C 68.75 14.582031 69.113281 14.558594 69.457031 14.605469 C 70.597656 14.71875 71.738281 14.675781 72.878906 14.605469 C 74.433594 14.539062 75.984375 14.628906 77.535156 14.46875 C 79.589844 14.242188 81.664062 14.195312 83.71875 14.195312 C 88.03125 14.195312 92.320312 13.761719 96.632812 13.578125 C 97.089844 13.554688 97.660156 13.601562 97.980469 13.375 C 98.710938 12.824219 99.554688 12.941406 100.671875 12.667969 C 95.378906 12.550781 90.472656 12.074219 85.523438 12.300781 C 83.238281 12.414062 80.933594 12.234375 78.652344 12.164062 C 77.785156 12.140625 76.917969 12.003906 76.074219 12.050781 C 74.066406 12.117188 72.082031 12.347656 70.074219 12.003906 C 69.640625 11.9375 69.136719 11.957031 68.703125 12.050781 C 68.066406 12.164062 67.425781 12.117188 66.808594 12.003906 C 66.101562 11.84375 65.488281 12.484375 64.78125 12.117188 C 63.523438 12.277344 62.269531 11.890625 61.015625 12.253906 C 59.210938 12.277344 57.410156 11.777344 55.582031 12.140625 C 54.96875 11.84375 54.328125 12.1875 53.734375 12.140625 C 53.074219 12.097656 52.410156 12.027344 51.726562 12.003906 C 50.792969 11.980469 49.925781 12.234375 49.011719 12.253906 C 47.734375 12.300781 46.480469 11.617188 45.179688 12.210938 C 44.332031 11.84375 43.488281 12.1875 42.644531 12.234375 C 42.1875 12.253906 41.664062 12.324219 41.296875 12.117188 C 40.636719 11.753906 39.996094 11.914062 39.335938 11.980469 C 39.109375 12.003906 38.855469 12.1875 38.675781 12.117188 C 37.578125 11.707031 36.550781 12.234375 35.480469 12.253906 C 34.316406 11.914062 33.152344 11.777344 31.964844 12.210938 C 31.03125 12.347656 30.09375 12.027344 29.160156 12.210938 C 28.90625 12.253906 28.609375 12.097656 28.335938 12.027344 C 28.0625 11.980469 27.765625 11.867188 27.492188 11.914062 C 26.671875 12.074219 25.894531 11.800781 25.097656 11.820312 C 24.320312 11.84375 23.546875 11.957031 22.746094 11.890625 C 22.015625 11.820312 21.242188 11.683594 20.554688 11.753906 C 19.757812 11.820312 18.9375 11.707031 18.160156 11.820312 C 16.949219 12.003906 15.765625 12.050781 14.554688 11.890625 C 13.324219 11.753906 12.023438 12.164062 10.835938 11.480469 C 10.742188 11.523438 10.652344 11.546875 10.5625 11.570312 C 10.539062 11.640625 10.46875 11.683594 10.425781 11.707031 C 10.289062 11.777344 10.105469 11.777344 9.945312 11.777344 C 9.855469 11.777344 9.738281 11.707031 9.671875 11.640625 C 9.511719 11.457031 9.625 11.410156 9.738281 11.367188 C 9.695312 11.320312 9.648438 11.296875 9.601562 11.25 C 9.535156 11.183594 9.261719 11.296875 9.148438 11.386719 C 8.917969 11.59375 8.734375 11.707031 8.394531 11.664062 C 7.664062 11.59375 6.957031 11.664062 6.226562 11.480469 C 5.199219 11.230469 4.195312 11.523438 3.191406 11.820312 C 2.894531 11.914062 2.644531 12.117188 2.710938 12.4375 C 2.894531 13.238281 2.027344 13.054688 1.800781 13.464844 C 2.117188 13.875 2.507812 14.195312 2.210938 14.71875 Z M 57.15625 13.007812 C 57.226562 13.054688 57.273438 13.121094 57.339844 13.167969 C 57.273438 13.121094 57.226562 13.054688 57.15625 13.007812 Z M 32.605469 13.375 C 32.695312 13.328125 32.785156 13.28125 32.855469 13.238281 C 32.785156 13.28125 32.695312 13.328125 32.605469 13.375 Z M 47.164062 13.214844 C 46.957031 13.238281 46.753906 13.238281 46.523438 13.257812 C 46.773438 13.238281 46.957031 13.214844 47.164062 13.214844 Z M 50.949219 13.054688 C 51.019531 13.101562 51.089844 13.167969 51.132812 13.191406 C 51.066406 13.167969 50.996094 13.101562 50.949219 13.054688 Z M 50.949219 13.054688 " fill-opacity="1" fill-rule="nonzero"></path></g><g clip-path="url(#5bb5a95d30)"><path fill="#4d429a" d="M 19.324219 16.386719 C 19.1875 16.363281 19.027344 16.386719 18.867188 16.386719 C 18.867188 16.453125 18.867188 16.523438 18.890625 16.523438 C 19.050781 16.546875 19.1875 16.566406 19.347656 16.546875 C 19.484375 16.523438 19.484375 16.429688 19.324219 16.386719 Z M 19.324219 16.386719 " fill-opacity="1" fill-rule="nonzero"></path></g><g clip-path="url(#36dd499ade)"><path fill="#4d429a" d="M 17.109375 16.523438 C 17.15625 16.546875 17.203125 16.546875 17.246094 16.566406 C 17.292969 16.566406 17.339844 16.546875 17.382812 16.546875 C 17.316406 16.523438 17.269531 16.476562 17.203125 16.476562 C 17.179688 16.453125 17.15625 16.5 17.109375 16.523438 Z M 17.109375 16.523438 " fill-opacity="1" fill-rule="nonzero"></path></g><g clip-path="url(#945163524a)"><path fill="#4d429a" d="M 20.785156 16.5 C 20.828125 16.523438 20.875 16.566406 20.898438 16.566406 C 20.988281 16.566406 21.105469 16.546875 21.195312 16.546875 C 21.195312 16.523438 21.171875 16.476562 21.171875 16.476562 C 21.035156 16.476562 20.921875 16.5 20.785156 16.5 Z M 20.785156 16.5 " fill-opacity="1" fill-rule="nonzero"></path></g><g clip-path="url(#d0739911b4)"><g clip-path="url(#314dfb85f9)"><g clip-path="url(#f7d63a2fa6)"><path fill="#4d429a" d="M 10.714844 83.265625 C 10.761719 83.199219 10.765625 83.105469 10.675781 82.988281 C 10.609375 82.921875 10.519531 82.871094 10.429688 82.824219 C 10.203125 82.726562 10.105469 82.910156 9.992188 82.996094 C 9.96875 83.019531 9.921875 83.042969 9.898438 83.039062 C 10.144531 83.253906 10.417969 83.328125 10.714844 83.265625 Z M 10.714844 83.265625 " fill-opacity="1" fill-rule="nonzero"></path></g></g></g><g clip-path="url(#d9a055a39d)"><g clip-path="url(#d61313aa25)"><g clip-path="url(#1c6d663ffc)"><path fill="#4d429a" d="M 2.273438 86.199219 C 2.175781 86.378906 2.195312 86.5625 2.449219 86.476562 C 2.746094 86.394531 2.972656 86.511719 3.265625 86.609375 C 3.898438 86.851562 4.578125 87.164062 5.238281 87.179688 C 5.945312 87.195312 6.464844 87.574219 7.078125 87.703125 C 7.804688 87.855469 8.601562 87.941406 9.289062 87.773438 C 10 87.609375 10.699219 87.945312 11.300781 87.707031 C 12.058594 87.402344 12.808594 87.625 13.511719 87.710938 C 14.171875 87.792969 14.820312 87.398438 15.496094 87.824219 C 15.699219 87.964844 16.210938 87.542969 16.574219 87.507812 C 17.148438 87.449219 17.742188 87.417969 18.285156 87.546875 C 18.96875 87.722656 19.628906 87.691406 20.339844 87.660156 C 22.121094 87.609375 23.902344 87.605469 25.679688 87.621094 C 26.640625 87.621094 27.570312 87.757812 28.53125 87.734375 C 30.722656 87.644531 32.914062 87.765625 35.082031 87.789062 C 36.992188 88.039062 38.914062 87.855469 40.832031 87.808594 C 42.179688 87.769531 43.519531 88.050781 44.855469 87.625 C 45.308594 87.769531 45.742188 87.757812 46.21875 87.769531 C 48.386719 87.75 50.578125 87.777344 52.746094 87.804688 C 53.660156 87.824219 54.570312 87.9375 55.464844 87.683594 C 56.015625 87.511719 56.585938 87.570312 57.152344 87.789062 C 57.761719 88.03125 58.378906 87.976562 58.960938 87.625 C 59.121094 87.582031 59.304688 87.496094 59.464844 87.546875 C 60.9375 87.945312 62.421875 87.839844 63.910156 87.644531 C 64.1875 87.605469 64.554688 87.5 64.757812 87.621094 C 65.386719 87.976562 65.988281 87.695312 66.582031 87.707031 C 67.21875 87.722656 67.835938 87.804688 68.476562 87.660156 C 68.796875 87.574219 69.164062 87.558594 69.503906 87.613281 C 70.644531 87.753906 71.785156 87.734375 72.925781 87.691406 C 74.480469 87.660156 76.027344 87.785156 77.582031 87.660156 C 79.640625 87.480469 81.71875 87.480469 83.773438 87.527344 C 88.082031 87.625 92.382812 87.289062 96.699219 87.203125 C 97.15625 87.191406 97.722656 87.25 98.050781 87.03125 C 98.792969 86.5 99.632812 86.632812 100.757812 86.382812 C 95.46875 86.148438 90.574219 85.558594 85.617188 85.675781 C 83.332031 85.738281 81.035156 85.5 78.753906 85.382812 C 77.886719 85.339844 77.023438 85.183594 76.179688 85.207031 C 74.167969 85.230469 72.179688 85.414062 70.179688 85.027344 C 69.746094 84.949219 69.246094 84.960938 68.808594 85.042969 C 68.167969 85.140625 67.53125 85.082031 66.917969 84.953125 C 66.214844 84.777344 65.582031 85.402344 64.882812 85.019531 C 63.625 85.152344 62.378906 84.734375 61.117188 85.070312 C 59.3125 85.054688 57.523438 84.511719 55.691406 84.835938 C 55.082031 84.523438 54.433594 84.851562 53.84375 84.792969 C 53.183594 84.730469 52.523438 84.648438 51.839844 84.609375 C 50.902344 84.566406 50.03125 84.796875 49.117188 84.800781 C 47.839844 84.816406 46.601562 84.101562 45.285156 84.667969 C 44.449219 84.28125 43.597656 84.605469 42.753906 84.632812 C 42.296875 84.644531 41.769531 84.699219 41.410156 84.488281 C 40.757812 84.105469 40.113281 84.253906 39.449219 84.304688 C 39.222656 84.324219 38.96875 84.5 38.785156 84.429688 C 37.699219 83.992188 36.660156 84.492188 35.589844 84.492188 C 34.433594 84.125 33.273438 83.960938 32.078125 84.367188 C 31.136719 84.480469 30.210938 84.140625 29.269531 84.304688 C 29.019531 84.34375 28.726562 84.175781 28.453125 84.101562 C 28.179688 84.050781 27.886719 83.929688 27.613281 83.96875 C 26.789062 84.109375 26.019531 83.816406 25.21875 83.824219 C 24.441406 83.828125 23.664062 83.925781 22.867188 83.835938 C 22.140625 83.753906 21.367188 83.597656 20.679688 83.652344 C 19.882812 83.703125 19.0625 83.570312 18.285156 83.664062 C 17.070312 83.820312 15.882812 83.839844 14.679688 83.652344 C 13.449219 83.488281 12.140625 83.867188 10.96875 83.15625 C 10.875 83.199219 10.785156 83.222656 10.691406 83.242188 C 10.667969 83.308594 10.597656 83.355469 10.554688 83.375 C 10.414062 83.441406 10.230469 83.4375 10.074219 83.433594 C 9.980469 83.429688 9.867188 83.359375 9.800781 83.289062 C 9.644531 83.105469 9.761719 83.0625 9.875 83.019531 C 9.832031 82.972656 9.785156 82.945312 9.742188 82.902344 C 9.675781 82.832031 9.398438 82.9375 9.28125 83.027344 C 9.050781 83.226562 8.863281 83.335938 8.523438 83.285156 C 7.796875 83.199219 7.085938 83.25 6.359375 83.050781 C 5.339844 82.777344 4.328125 83.050781 3.320312 83.324219 C 3.019531 83.410156 2.765625 83.609375 2.824219 83.929688 C 2.988281 84.734375 2.128906 84.53125 1.890625 84.9375 C 2.199219 85.355469 2.582031 85.683594 2.273438 86.199219 Z M 57.246094 85.738281 C 57.3125 85.785156 57.355469 85.855469 57.421875 85.902344 C 57.355469 85.855469 57.3125 85.785156 57.246094 85.738281 Z M 32.6875 85.542969 C 32.78125 85.5 32.875 85.457031 32.945312 85.414062 C 32.875 85.457031 32.78125 85.5 32.6875 85.542969 Z M 47.246094 85.714844 C 47.042969 85.734375 46.835938 85.730469 46.609375 85.746094 C 46.859375 85.730469 47.042969 85.710938 47.246094 85.714844 Z M 51.039062 85.640625 C 51.105469 85.6875 51.171875 85.757812 51.21875 85.78125 C 51.148438 85.757812 51.082031 85.6875 51.039062 85.640625 Z M 51.039062 85.640625 " fill-opacity="1" fill-rule="nonzero"></path></g></g></g><g clip-path="url(#52fd561e7c)"><g clip-path="url(#9f1b3bfa14)"><g clip-path="url(#db8dd8bb40)"><path fill="#4d429a" d="M 19.34375 88.253906 C 19.207031 88.226562 19.046875 88.246094 18.886719 88.242188 C 18.886719 88.3125 18.882812 88.378906 18.90625 88.382812 C 19.066406 88.40625 19.203125 88.433594 19.363281 88.414062 C 19.5 88.394531 19.503906 88.304688 19.34375 88.253906 Z M 19.34375 88.253906 " fill-opacity="1" fill-rule="nonzero"></path></g></g></g><g clip-path="url(#7e54b85efb)"><g clip-path="url(#8c7447b535)"><g clip-path="url(#1270dc9be3)"><path fill="#4d429a" d="M 17.128906 88.339844 C 17.171875 88.363281 17.21875 88.367188 17.261719 88.390625 C 17.308594 88.390625 17.355469 88.367188 17.402344 88.371094 C 17.332031 88.34375 17.289062 88.300781 17.21875 88.296875 C 17.199219 88.273438 17.175781 88.320312 17.128906 88.339844 Z M 17.128906 88.339844 " fill-opacity="1" fill-rule="nonzero"></path></g></g></g><g clip-path="url(#d7ef54e84e)"><g clip-path="url(#0a9540ae55)"><g clip-path="url(#9a95eda391)"><path fill="#4d429a" d="M 20.800781 88.402344 C 20.847656 88.425781 20.890625 88.472656 20.914062 88.472656 C 21.003906 88.472656 21.121094 88.453125 21.210938 88.457031 C 21.210938 88.433594 21.191406 88.386719 21.191406 88.386719 C 21.050781 88.382812 20.9375 88.40625 20.800781 88.402344 Z M 20.800781 88.402344 " fill-opacity="1" fill-rule="nonzero"></path></g></g></g><g clip-path="url(#5f1fbd8fd5)"><g clip-path="url(#8808fcafe1)"><g clip-path="url(#082164976d)"><path fill="#4d429a" d="M 2.527344 15.414062 C 2.496094 15.492188 2.480469 15.597656 2.46875 15.707031 C 2.464844 15.699219 2.457031 15.695312 2.445312 15.695312 C 2.441406 15.757812 2.460938 15.785156 2.453125 15.847656 C 2.441406 15.828125 2.429688 15.84375 2.433594 15.878906 C 2.417969 15.859375 2.429688 15.800781 2.449219 15.800781 C 2.449219 15.789062 2.4375 15.792969 2.4375 15.800781 C 2.449219 15.648438 2.429688 15.488281 2.457031 15.355469 C 2.402344 15.433594 2.394531 15.683594 2.363281 15.800781 C 2.347656 15.792969 2.355469 15.742188 2.375 15.753906 C 2.371094 15.738281 2.371094 15.71875 2.359375 15.714844 C 2.378906 15.613281 2.390625 15.496094 2.390625 15.390625 C 2.4375 15.277344 2.460938 15.117188 2.539062 15.054688 C 2.589844 15.050781 2.617188 15.066406 2.65625 15.054688 C 2.710938 15.085938 2.757812 15.121094 2.792969 15.183594 C 2.84375 15.140625 2.882812 15.117188 2.9375 15.117188 C 2.945312 15.132812 2.957031 15.1875 2.964844 15.148438 C 2.972656 15.167969 2.980469 15.1875 2.988281 15.207031 C 3.007812 15.199219 3.011719 15.152344 3.027344 15.175781 C 3.03125 15.210938 3.019531 15.214844 3.019531 15.242188 C 3.058594 15.238281 3.074219 15.167969 3.121094 15.152344 C 3.179688 15.128906 3.25 15.175781 3.320312 15.171875 C 3.316406 15.265625 3.410156 15.234375 3.398438 15.367188 C 3.441406 15.269531 3.484375 15.128906 3.492188 15.007812 C 3.515625 14.984375 3.585938 14.957031 3.601562 15.007812 C 3.613281 14.996094 3.625 14.984375 3.636719 14.972656 C 3.648438 14.992188 3.632812 15.066406 3.664062 15.039062 C 3.679688 15.132812 3.652344 15.253906 3.703125 15.324219 C 3.71875 15.324219 3.714844 15.289062 3.722656 15.277344 C 3.738281 15.273438 3.757812 15.296875 3.773438 15.289062 C 3.785156 15.234375 3.796875 15.261719 3.796875 15.210938 C 3.816406 15.222656 3.828125 15.242188 3.828125 15.277344 C 3.84375 15.25 3.847656 15.195312 3.875 15.183594 C 3.898438 15.292969 3.878906 15.339844 3.878906 15.460938 C 3.917969 15.289062 3.964844 15.136719 4.019531 15 C 4.046875 14.996094 4.074219 14.996094 4.070312 15.019531 C 4.089844 15 4.074219 14.984375 4.066406 14.96875 C 4.117188 14.960938 4.152344 14.957031 4.183594 14.90625 C 4.226562 14.925781 4.207031 14.992188 4.21875 15.050781 C 4.25 15.042969 4.277344 15.03125 4.28125 14.984375 C 4.335938 15.015625 4.324219 15.175781 4.34375 15.234375 C 4.382812 15.210938 4.355469 15.152344 4.347656 15.101562 C 4.371094 15.113281 4.367188 15.078125 4.386719 15.082031 C 4.386719 15.25 4.4375 15.265625 4.414062 15.441406 C 4.578125 15.453125 4.660156 15.578125 4.777344 15.648438 C 4.761719 15.730469 4.789062 15.769531 4.8125 15.8125 C 4.828125 15.816406 4.808594 15.761719 4.824219 15.765625 C 4.84375 15.839844 4.839844 15.945312 4.84375 16.050781 C 4.851562 16.148438 4.847656 16.234375 4.820312 16.296875 C 4.871094 16.785156 4.808594 17.167969 4.824219 17.683594 C 4.804688 17.691406 4.816406 17.652344 4.800781 17.652344 C 4.792969 17.8125 4.832031 18.089844 4.792969 18.242188 C 4.796875 18.273438 4.773438 18.253906 4.769531 18.269531 C 4.769531 18.390625 4.804688 18.5 4.761719 18.574219 C 4.746094 18.742188 4.792969 18.933594 4.753906 19.058594 C 4.746094 19.554688 4.757812 19.957031 4.699219 20.375 C 4.683594 20.613281 4.695312 20.808594 4.675781 21.050781 C 4.644531 21.015625 4.648438 20.933594 4.640625 20.867188 C 4.628906 20.957031 4.621094 21.097656 4.628906 21.21875 C 4.644531 21.621094 4.625 22.042969 4.597656 22.453125 C 4.582031 22.472656 4.589844 22.449219 4.578125 22.441406 C 4.554688 22.523438 4.582031 22.609375 4.585938 22.679688 C 4.574219 22.699219 4.570312 22.679688 4.554688 22.679688 C 4.542969 22.761719 4.570312 22.738281 4.578125 22.785156 C 4.582031 22.828125 4.5625 22.769531 4.558594 22.804688 C 4.554688 22.824219 4.566406 22.820312 4.574219 22.824219 C 4.5625 22.929688 4.554688 23.019531 4.5625 23.144531 C 4.566406 23.183594 4.546875 23.136719 4.539062 23.164062 C 4.53125 23.324219 4.5625 23.550781 4.539062 23.722656 C 4.527344 23.804688 4.535156 23.859375 4.535156 23.953125 C 4.53125 24.03125 4.496094 24.109375 4.484375 24.195312 C 4.476562 24.269531 4.5 24.378906 4.480469 24.492188 C 4.472656 24.488281 4.476562 24.464844 4.46875 24.460938 C 4.46875 24.785156 4.460938 25.183594 4.484375 25.488281 C 4.449219 25.855469 4.5 26.285156 4.484375 26.617188 C 4.476562 26.609375 4.472656 26.59375 4.476562 26.570312 C 4.441406 26.894531 4.421875 27.398438 4.425781 27.8125 C 4.425781 27.851562 4.453125 27.855469 4.449219 27.910156 C 4.480469 27.933594 4.484375 28.011719 4.492188 28.0625 C 4.496094 28.070312 4.511719 28.097656 4.511719 28.109375 C 4.515625 28.261719 4.398438 28.210938 4.339844 28.296875 C 4.355469 28.339844 4.363281 28.386719 4.335938 28.429688 C 4.296875 28.425781 4.304688 28.355469 4.277344 28.332031 C 4.269531 28.34375 4.253906 28.386719 4.277344 28.390625 C 4.261719 28.410156 4.242188 28.410156 4.230469 28.386719 C 4.226562 28.421875 4.253906 28.410156 4.25 28.445312 C 4.238281 28.449219 4.234375 28.4375 4.226562 28.433594 C 4.222656 28.464844 4.234375 28.464844 4.222656 28.484375 C 4.183594 28.484375 4.152344 28.476562 4.136719 28.441406 C 4.09375 28.632812 3.988281 28.785156 3.902344 28.941406 C 3.867188 28.9375 3.855469 28.886719 3.816406 28.882812 C 3.796875 28.765625 3.789062 28.691406 3.789062 28.550781 C 3.777344 28.527344 3.753906 28.566406 3.738281 28.539062 C 3.746094 28.5 3.746094 28.445312 3.714844 28.414062 C 3.707031 28.449219 3.710938 28.46875 3.703125 28.511719 C 3.6875 28.503906 3.683594 28.476562 3.671875 28.472656 C 3.632812 28.53125 3.582031 28.433594 3.539062 28.46875 C 3.527344 28.453125 3.550781 28.414062 3.546875 28.382812 C 3.527344 28.433594 3.539062 28.332031 3.523438 28.316406 C 3.511719 28.320312 3.535156 28.394531 3.511719 28.375 C 3.519531 28.46875 3.503906 28.441406 3.507812 28.515625 C 3.414062 28.5 3.382812 28.355469 3.339844 28.199219 C 3.320312 28.21875 3.285156 28.253906 3.257812 28.234375 C 3.246094 28.246094 3.269531 28.289062 3.269531 28.3125 C 3.25 28.3125 3.25 28.285156 3.234375 28.28125 C 3.21875 28.304688 3.242188 28.300781 3.238281 28.328125 C 3.203125 28.300781 3.214844 28.25 3.199219 28.207031 C 3.171875 28.246094 3.195312 28.292969 3.195312 28.347656 C 3.183594 28.34375 3.191406 28.316406 3.171875 28.328125 C 3.167969 28.355469 3.191406 28.347656 3.179688 28.386719 C 3.160156 28.390625 3.167969 28.355469 3.144531 28.367188 C 3.152344 28.414062 3.15625 28.476562 3.148438 28.519531 C 3.125 28.515625 3.125 28.484375 3.113281 28.46875 C 3.101562 28.5 3.117188 28.523438 3.117188 28.566406 C 3.089844 28.566406 3.058594 28.566406 3.054688 28.496094 C 3.039062 28.5 3.03125 28.496094 3.023438 28.488281 C 3.003906 28.527344 3.015625 28.542969 3.007812 28.628906 C 2.980469 28.644531 2.960938 28.589844 2.941406 28.597656 C 2.894531 28.625 2.902344 28.675781 2.898438 28.75 C 2.875 28.71875 2.859375 28.734375 2.839844 28.703125 C 2.820312 28.75 2.796875 28.710938 2.757812 28.710938 C 2.757812 28.691406 2.765625 28.691406 2.765625 28.671875 C 2.699219 28.648438 2.730469 28.484375 2.664062 28.460938 C 2.648438 28.503906 2.589844 28.476562 2.574219 28.515625 C 2.496094 28.460938 2.347656 28.503906 2.347656 28.332031 C 2.320312 28.339844 2.308594 28.371094 2.308594 28.425781 C 2.28125 28.414062 2.277344 28.445312 2.277344 28.480469 C 2.246094 28.464844 2.246094 28.460938 2.226562 28.5 C 2.175781 28.453125 2.117188 28.464844 2.042969 28.417969 C 2.074219 28.027344 2.089844 27.484375 2.117188 27.140625 C 2.117188 27.128906 2.109375 27.132812 2.105469 27.128906 C 2.144531 27.054688 2.125 26.9375 2.105469 26.863281 C 2.109375 26.867188 2.117188 26.875 2.125 26.875 C 2.128906 26.832031 2.113281 26.820312 2.121094 26.777344 C 2.136719 26.699219 2.105469 26.394531 2.105469 26.199219 C 2.109375 25.984375 2.085938 25.761719 2.0625 25.65625 C 2.117188 25.625 2.097656 25.515625 2.097656 25.402344 C 2.097656 25.371094 2.121094 25.386719 2.125 25.363281 C 2.097656 25.304688 2.144531 25.136719 2.109375 25.070312 C 2.09375 25.0625 2.089844 25.074219 2.089844 25.097656 C 2.070312 25.03125 2.097656 24.945312 2.082031 24.871094 C 2.078125 24.875 2.078125 24.890625 2.066406 24.886719 C 2.074219 24.757812 2.101562 24.621094 2.132812 24.539062 C 2.121094 24.492188 2.144531 24.464844 2.148438 24.425781 C 2.167969 24.3125 2.144531 24.140625 2.144531 24.007812 C 2.152344 23.59375 2.195312 23.1875 2.183594 22.800781 C 2.1875 22.796875 2.1875 22.78125 2.199219 22.785156 C 2.203125 22.484375 2.1875 22.242188 2.199219 21.949219 C 2.183594 21.945312 2.183594 21.96875 2.179688 21.984375 C 2.175781 21.910156 2.199219 21.839844 2.214844 21.777344 C 2.171875 21.710938 2.222656 21.660156 2.226562 21.570312 C 2.238281 21.5625 2.234375 21.585938 2.242188 21.589844 C 2.273438 21.28125 2.183594 21 2.242188 20.6875 C 2.234375 20.675781 2.226562 20.65625 2.226562 20.628906 C 2.265625 20.640625 2.253906 20.726562 2.265625 20.773438 C 2.273438 20.628906 2.257812 20.453125 2.296875 20.28125 C 2.238281 20.21875 2.277344 20.046875 2.265625 19.910156 C 2.277344 19.90625 2.277344 19.917969 2.285156 19.917969 C 2.285156 19.875 2.296875 19.847656 2.300781 19.804688 C 2.277344 19.804688 2.28125 19.839844 2.277344 19.871094 C 2.25 19.792969 2.304688 19.691406 2.246094 19.652344 C 2.253906 19.601562 2.253906 19.566406 2.234375 19.539062 C 2.246094 19.535156 2.246094 19.546875 2.253906 19.546875 C 2.296875 19.285156 2.300781 18.988281 2.308594 18.648438 C 2.285156 18.652344 2.296875 18.710938 2.285156 18.730469 C 2.261719 18.410156 2.363281 18.046875 2.304688 17.714844 C 2.285156 17.761719 2.285156 17.871094 2.277344 17.90625 C 2.273438 17.925781 2.28125 17.96875 2.269531 17.972656 C 2.273438 17.863281 2.257812 17.828125 2.261719 17.734375 C 2.253906 17.71875 2.242188 17.714844 2.242188 17.6875 C 2.253906 17.707031 2.261719 17.683594 2.28125 17.6875 C 2.285156 17.648438 2.273438 17.636719 2.269531 17.613281 C 2.296875 17.558594 2.289062 17.511719 2.273438 17.449219 C 2.34375 17.121094 2.300781 16.699219 2.332031 16.332031 C 2.359375 16.421875 2.324219 16.554688 2.363281 16.636719 C 2.378906 16.621094 2.359375 16.542969 2.394531 16.558594 C 2.402344 16.519531 2.375 16.519531 2.378906 16.484375 C 2.386719 16.472656 2.402344 16.472656 2.410156 16.484375 C 2.398438 16.40625 2.402344 16.265625 2.441406 16.171875 C 2.441406 16.199219 2.441406 16.230469 2.441406 16.257812 C 2.460938 16.0625 2.503906 15.757812 2.503906 15.527344 C 2.535156 15.507812 2.507812 15.488281 2.527344 15.414062 Z M 2.230469 22.234375 C 2.230469 22.1875 2.238281 22.136719 2.257812 22.175781 C 2.261719 22.140625 2.246094 22.128906 2.238281 22.101562 C 2.238281 22.140625 2.226562 22.125 2.214844 22.109375 C 2.238281 22.148438 2.191406 22.226562 2.230469 22.234375 Z M 2.320312 17.621094 C 2.316406 17.632812 2.308594 17.640625 2.324219 17.640625 C 2.324219 17.59375 2.320312 17.546875 2.328125 17.515625 C 2.300781 17.519531 2.304688 17.597656 2.320312 17.621094 Z M 2.402344 20.242188 C 2.425781 20.253906 2.417969 20.191406 2.402344 20.195312 C 2.402344 20.21875 2.390625 20.226562 2.402344 20.242188 Z M 2.414062 20.175781 C 2.414062 20.144531 2.425781 20.089844 2.410156 20.074219 C 2.40625 20.125 2.390625 20.144531 2.414062 20.175781 Z M 2.671875 21.597656 C 2.691406 21.570312 2.671875 21.515625 2.695312 21.511719 C 2.695312 21.484375 2.675781 21.464844 2.6875 21.445312 C 2.679688 21.445312 2.671875 21.445312 2.664062 21.445312 C 2.667969 21.492188 2.664062 21.558594 2.671875 21.597656 Z M 3.097656 17.164062 C 3.09375 17.132812 3.097656 17.09375 3.074219 17.085938 C 3.074219 17.125 3.070312 17.167969 3.097656 17.164062 Z M 3.148438 16.953125 C 3.136719 16.824219 3.128906 17.011719 3.144531 17.03125 C 3.144531 17 3.148438 16.976562 3.148438 16.953125 Z M 3.3125 25.570312 C 3.320312 25.5625 3.320312 25.511719 3.300781 25.511719 C 3.300781 25.535156 3.296875 25.566406 3.3125 25.570312 Z M 3.730469 22.75 C 3.710938 22.734375 3.707031 22.804688 3.71875 22.816406 C 3.714844 22.777344 3.738281 22.792969 3.730469 22.75 Z M 3.734375 22.597656 C 3.746094 22.511719 3.738281 22.441406 3.746094 22.339844 C 3.734375 22.390625 3.710938 22.542969 3.734375 22.597656 Z M 3.75 22.101562 C 3.75 22.117188 3.75 22.136719 3.738281 22.132812 C 3.75 22.1875 3.734375 22.277344 3.734375 22.320312 C 3.757812 22.21875 3.761719 22.167969 3.75 22.101562 Z M 3.753906 23.101562 C 3.765625 23.164062 3.734375 23.253906 3.757812 23.28125 C 3.777344 23.167969 3.792969 22.925781 3.769531 22.796875 C 3.757812 22.898438 3.742188 22.957031 3.75 23.050781 C 3.773438 22.980469 3.742188 23.117188 3.742188 23.117188 C 3.746094 23.109375 3.75 23.105469 3.753906 23.101562 Z M 3.777344 22.039062 C 3.777344 22.015625 3.777344 21.992188 3.777344 21.972656 C 3.753906 21.964844 3.765625 22.035156 3.777344 22.039062 Z M 3.769531 22.769531 C 3.769531 22.773438 3.769531 22.78125 3.773438 22.777344 C 3.777344 22.734375 3.773438 22.605469 3.769531 22.710938 C 3.753906 22.730469 3.773438 22.742188 3.761719 22.757812 C 3.757812 22.757812 3.753906 22.761719 3.757812 22.769531 C 3.761719 22.769531 3.765625 22.769531 3.769531 22.769531 Z M 3.796875 23.308594 C 3.808594 23.320312 3.808594 23.34375 3.820312 23.359375 C 3.835938 23.152344 3.835938 22.800781 3.835938 22.5625 C 3.796875 22.769531 3.824219 23.0625 3.796875 23.308594 Z M 4.230469 16.503906 C 4.273438 16.40625 4.292969 16.265625 4.289062 16.144531 C 4.28125 16.265625 4.214844 16.402344 4.230469 16.503906 Z M 4.285156 16.921875 C 4.304688 16.890625 4.304688 16.8125 4.289062 16.777344 C 4.304688 16.78125 4.3125 16.777344 4.3125 16.761719 C 4.300781 16.742188 4.300781 16.765625 4.289062 16.75 C 4.261719 16.800781 4.273438 16.859375 4.285156 16.921875 Z M 4.289062 17.09375 C 4.289062 17.054688 4.300781 17.039062 4.296875 16.996094 C 4.265625 17 4.277344 17.089844 4.289062 17.09375 Z M 4.363281 16.269531 C 4.367188 16.238281 4.367188 16.207031 4.371094 16.152344 C 4.339844 16.15625 4.355469 16.234375 4.363281 16.269531 Z M 4.414062 24.726562 C 4.421875 24.75 4.398438 24.820312 4.417969 24.851562 C 4.4375 24.832031 4.433594 24.742188 4.414062 24.726562 Z M 4.558594 20.601562 C 4.5625 20.636719 4.542969 20.652344 4.558594 20.675781 C 4.585938 20.640625 4.582031 20.5625 4.578125 20.496094 C 4.578125 20.390625 4.566406 20.289062 4.582031 20.183594 C 4.542969 20.285156 4.554688 20.523438 4.558594 20.601562 Z M 4.578125 20.03125 C 4.585938 19.988281 4.582031 19.890625 4.570312 19.832031 C 4.574219 19.902344 4.539062 20.019531 4.578125 20.03125 Z M 4.578125 19.453125 C 4.605469 19.457031 4.570312 19.546875 4.597656 19.546875 C 4.609375 19.5 4.601562 19.464844 4.59375 19.425781 C 4.613281 19.421875 4.617188 19.417969 4.632812 19.398438 C 4.585938 19.199219 4.675781 19.007812 4.625 18.816406 C 4.59375 19.027344 4.617188 19.246094 4.578125 19.453125 Z M 4.566406 21.199219 C 4.5625 21.246094 4.535156 21.308594 4.574219 21.332031 C 4.589844 21.160156 4.589844 20.992188 4.5625 20.820312 C 4.558594 20.941406 4.570312 21.078125 4.566406 21.199219 Z M 4.566406 21.199219 " fill-opacity="1" fill-rule="evenodd"></path></g></g></g><g clip-path="url(#06f7f94b27)"><g clip-path="url(#23666d17c2)"><g clip-path="url(#ef5f52a6b9)"><path fill="#4d429a" d="M 3.636719 71.324219 C 3.605469 71.40625 3.59375 71.511719 3.582031 71.617188 C 3.574219 71.609375 3.566406 71.609375 3.554688 71.609375 C 3.554688 71.667969 3.574219 71.695312 3.566406 71.761719 C 3.554688 71.738281 3.542969 71.757812 3.546875 71.789062 C 3.53125 71.769531 3.542969 71.710938 3.558594 71.714844 C 3.558594 71.699219 3.546875 71.703125 3.546875 71.710938 C 3.5625 71.558594 3.539062 71.398438 3.570312 71.265625 C 3.515625 71.34375 3.507812 71.59375 3.472656 71.710938 C 3.460938 71.703125 3.46875 71.652344 3.488281 71.664062 C 3.480469 71.652344 3.480469 71.628906 3.46875 71.625 C 3.492188 71.523438 3.503906 71.40625 3.5 71.304688 C 3.546875 71.1875 3.570312 71.03125 3.652344 70.964844 C 3.703125 70.960938 3.726562 70.976562 3.769531 70.96875 C 3.820312 71 3.871094 71.035156 3.902344 71.09375 C 3.957031 71.054688 3.996094 71.03125 4.046875 71.03125 C 4.058594 71.042969 4.066406 71.101562 4.078125 71.058594 C 4.085938 71.078125 4.09375 71.097656 4.101562 71.117188 C 4.117188 71.113281 4.125 71.066406 4.140625 71.089844 C 4.144531 71.121094 4.128906 71.125 4.132812 71.15625 C 4.167969 71.148438 4.1875 71.078125 4.234375 71.0625 C 4.292969 71.039062 4.359375 71.085938 4.433594 71.085938 C 4.429688 71.179688 4.523438 71.148438 4.507812 71.277344 C 4.550781 71.179688 4.597656 71.039062 4.601562 70.917969 C 4.628906 70.898438 4.695312 70.867188 4.714844 70.921875 C 4.726562 70.910156 4.738281 70.894531 4.746094 70.882812 C 4.761719 70.902344 4.746094 70.980469 4.777344 70.949219 C 4.789062 71.046875 4.761719 71.167969 4.8125 71.234375 C 4.832031 71.234375 4.824219 71.199219 4.832031 71.1875 C 4.851562 71.1875 4.871094 71.207031 4.882812 71.199219 C 4.898438 71.144531 4.90625 71.171875 4.910156 71.125 C 4.925781 71.136719 4.9375 71.152344 4.941406 71.191406 C 4.957031 71.160156 4.957031 71.109375 4.984375 71.097656 C 5.011719 71.207031 4.988281 71.253906 4.992188 71.371094 C 5.027344 71.199219 5.074219 71.046875 5.132812 70.910156 C 5.160156 70.910156 5.1875 70.90625 5.179688 70.929688 C 5.203125 70.914062 5.1875 70.898438 5.175781 70.882812 C 5.230469 70.875 5.261719 70.867188 5.296875 70.816406 C 5.339844 70.839844 5.320312 70.902344 5.328125 70.960938 C 5.359375 70.953125 5.386719 70.941406 5.394531 70.894531 C 5.449219 70.925781 5.4375 71.089844 5.457031 71.144531 C 5.496094 71.125 5.464844 71.0625 5.460938 71.011719 C 5.484375 71.023438 5.480469 70.992188 5.496094 70.992188 C 5.5 71.160156 5.550781 71.179688 5.527344 71.355469 C 5.6875 71.363281 5.769531 71.492188 5.890625 71.5625 C 5.871094 71.644531 5.898438 71.679688 5.921875 71.722656 C 5.941406 71.726562 5.917969 71.671875 5.9375 71.675781 C 5.957031 71.75 5.949219 71.855469 5.957031 71.960938 C 5.960938 72.058594 5.960938 72.144531 5.933594 72.207031 C 5.980469 72.699219 5.921875 73.078125 5.933594 73.59375 C 5.914062 73.601562 5.925781 73.5625 5.910156 73.566406 C 5.90625 73.722656 5.945312 74 5.90625 74.152344 C 5.910156 74.183594 5.882812 74.164062 5.878906 74.179688 C 5.878906 74.300781 5.917969 74.410156 5.875 74.484375 C 5.859375 74.65625 5.90625 74.84375 5.863281 74.96875 C 5.859375 75.46875 5.871094 75.871094 5.8125 76.289062 C 5.792969 76.523438 5.804688 76.71875 5.785156 76.960938 C 5.757812 76.925781 5.757812 76.847656 5.753906 76.78125 C 5.738281 76.867188 5.734375 77.011719 5.738281 77.128906 C 5.757812 77.535156 5.734375 77.953125 5.707031 78.363281 C 5.691406 78.382812 5.699219 78.363281 5.6875 78.355469 C 5.667969 78.433594 5.691406 78.519531 5.695312 78.589844 C 5.683594 78.609375 5.679688 78.59375 5.664062 78.589844 C 5.65625 78.671875 5.683594 78.648438 5.6875 78.695312 C 5.691406 78.742188 5.671875 78.683594 5.667969 78.714844 C 5.664062 78.734375 5.675781 78.734375 5.6875 78.734375 C 5.675781 78.84375 5.667969 78.929688 5.675781 79.054688 C 5.675781 79.09375 5.660156 79.046875 5.648438 79.074219 C 5.644531 79.234375 5.671875 79.460938 5.652344 79.636719 C 5.640625 79.71875 5.648438 79.769531 5.644531 79.863281 C 5.644531 79.941406 5.609375 80.019531 5.597656 80.109375 C 5.585938 80.183594 5.609375 80.292969 5.589844 80.402344 C 5.582031 80.402344 5.589844 80.375 5.578125 80.375 C 5.582031 80.695312 5.570312 81.09375 5.597656 81.398438 C 5.5625 81.769531 5.609375 82.195312 5.597656 82.53125 C 5.589844 82.519531 5.585938 82.503906 5.585938 82.480469 C 5.550781 82.808594 5.535156 83.308594 5.535156 83.722656 C 5.539062 83.765625 5.566406 83.765625 5.558594 83.820312 C 5.59375 83.847656 5.59375 83.921875 5.605469 83.972656 C 5.609375 83.980469 5.625 84.011719 5.625 84.019531 C 5.625 84.171875 5.511719 84.125 5.453125 84.207031 C 5.46875 84.253906 5.472656 84.296875 5.449219 84.339844 C 5.410156 84.335938 5.414062 84.265625 5.386719 84.242188 C 5.378906 84.253906 5.367188 84.296875 5.386719 84.300781 C 5.375 84.320312 5.355469 84.320312 5.34375 84.300781 C 5.339844 84.332031 5.367188 84.324219 5.363281 84.355469 C 5.347656 84.359375 5.34375 84.351562 5.335938 84.347656 C 5.332031 84.375 5.347656 84.375 5.335938 84.394531 C 5.296875 84.394531 5.261719 84.390625 5.25 84.355469 C 5.203125 84.542969 5.097656 84.695312 5.015625 84.851562 C 4.976562 84.847656 4.96875 84.800781 4.929688 84.792969 C 4.910156 84.675781 4.902344 84.601562 4.898438 84.460938 C 4.886719 84.4375 4.863281 84.476562 4.851562 84.449219 C 4.855469 84.410156 4.855469 84.355469 4.828125 84.328125 C 4.816406 84.363281 4.824219 84.378906 4.8125 84.421875 C 4.796875 84.414062 4.796875 84.390625 4.78125 84.382812 C 4.746094 84.441406 4.691406 84.34375 4.652344 84.378906 C 4.636719 84.363281 4.664062 84.328125 4.660156 84.296875 C 4.640625 84.34375 4.648438 84.242188 4.636719 84.226562 C 4.625 84.230469 4.648438 84.308594 4.621094 84.285156 C 4.628906 84.378906 4.617188 84.351562 4.621094 84.425781 C 4.527344 84.414062 4.492188 84.265625 4.453125 84.109375 C 4.433594 84.132812 4.394531 84.167969 4.371094 84.148438 C 4.359375 84.160156 4.378906 84.199219 4.382812 84.222656 C 4.363281 84.222656 4.359375 84.199219 4.34375 84.195312 C 4.328125 84.214844 4.355469 84.210938 4.351562 84.242188 C 4.3125 84.210938 4.328125 84.160156 4.308594 84.117188 C 4.285156 84.160156 4.304688 84.207031 4.304688 84.257812 C 4.296875 84.253906 4.300781 84.230469 4.28125 84.238281 C 4.28125 84.265625 4.300781 84.257812 4.292969 84.296875 C 4.273438 84.300781 4.28125 84.265625 4.257812 84.277344 C 4.261719 84.328125 4.265625 84.386719 4.257812 84.429688 C 4.238281 84.429688 4.234375 84.394531 4.222656 84.382812 C 4.210938 84.410156 4.226562 84.433594 4.226562 84.476562 C 4.199219 84.480469 4.171875 84.476562 4.167969 84.40625 C 4.152344 84.410156 4.140625 84.40625 4.136719 84.398438 C 4.117188 84.4375 4.128906 84.457031 4.121094 84.539062 C 4.089844 84.554688 4.074219 84.5 4.050781 84.511719 C 4.007812 84.535156 4.011719 84.589844 4.011719 84.660156 C 3.988281 84.628906 3.972656 84.644531 3.949219 84.613281 C 3.929688 84.660156 3.910156 84.625 3.871094 84.621094 C 3.871094 84.605469 3.878906 84.601562 3.875 84.582031 C 3.8125 84.558594 3.84375 84.394531 3.773438 84.371094 C 3.761719 84.414062 3.703125 84.386719 3.6875 84.425781 C 3.605469 84.371094 3.460938 84.414062 3.460938 84.242188 C 3.433594 84.25 3.421875 84.28125 3.421875 84.335938 C 3.394531 84.328125 3.386719 84.355469 3.390625 84.394531 C 3.359375 84.375 3.355469 84.371094 3.339844 84.410156 C 3.285156 84.367188 3.230469 84.375 3.152344 84.332031 C 3.1875 83.941406 3.199219 83.394531 3.230469 83.050781 C 3.230469 83.042969 3.222656 83.042969 3.21875 83.042969 C 3.253906 82.96875 3.238281 82.851562 3.21875 82.773438 C 3.222656 82.78125 3.226562 82.785156 3.234375 82.785156 C 3.242188 82.742188 3.226562 82.730469 3.230469 82.691406 C 3.246094 82.609375 3.214844 82.304688 3.21875 82.109375 C 3.21875 81.898438 3.199219 81.675781 3.171875 81.570312 C 3.226562 81.535156 3.210938 81.425781 3.210938 81.3125 C 3.207031 81.285156 3.234375 81.296875 3.234375 81.277344 C 3.207031 81.21875 3.257812 81.050781 3.222656 80.980469 C 3.207031 80.976562 3.199219 80.984375 3.203125 81.007812 C 3.183594 80.941406 3.210938 80.859375 3.195312 80.78125 C 3.1875 80.789062 3.1875 80.804688 3.175781 80.800781 C 3.1875 80.671875 3.210938 80.53125 3.246094 80.449219 C 3.234375 80.402344 3.253906 80.375 3.261719 80.335938 C 3.277344 80.222656 3.253906 80.054688 3.257812 79.917969 C 3.261719 79.503906 3.308594 79.097656 3.292969 78.714844 C 3.300781 78.707031 3.300781 78.691406 3.3125 78.695312 C 3.316406 78.394531 3.300781 78.15625 3.3125 77.859375 C 3.292969 77.855469 3.292969 77.878906 3.292969 77.898438 C 3.285156 77.820312 3.3125 77.75 3.328125 77.6875 C 3.285156 77.621094 3.335938 77.574219 3.335938 77.480469 C 3.351562 77.476562 3.347656 77.5 3.355469 77.5 C 3.386719 77.191406 3.296875 76.914062 3.355469 76.597656 C 3.34375 76.585938 3.339844 76.566406 3.335938 76.539062 C 3.378906 76.550781 3.363281 76.636719 3.378906 76.683594 C 3.382812 76.539062 3.367188 76.363281 3.40625 76.191406 C 3.351562 76.128906 3.390625 75.957031 3.378906 75.820312 C 3.386719 75.816406 3.386719 75.828125 3.394531 75.832031 C 3.394531 75.785156 3.410156 75.757812 3.410156 75.714844 C 3.390625 75.714844 3.390625 75.75 3.390625 75.78125 C 3.363281 75.707031 3.417969 75.601562 3.359375 75.5625 C 3.367188 75.511719 3.367188 75.476562 3.347656 75.449219 C 3.359375 75.445312 3.359375 75.457031 3.367188 75.460938 C 3.40625 75.199219 3.410156 74.898438 3.421875 74.558594 C 3.398438 74.5625 3.410156 74.625 3.394531 74.644531 C 3.375 74.320312 3.476562 73.960938 3.414062 73.628906 C 3.394531 73.675781 3.394531 73.78125 3.386719 73.816406 C 3.382812 73.835938 3.394531 73.878906 3.378906 73.882812 C 3.386719 73.777344 3.367188 73.738281 3.371094 73.644531 C 3.367188 73.632812 3.351562 73.625 3.355469 73.597656 C 3.367188 73.621094 3.371094 73.59375 3.390625 73.597656 C 3.398438 73.558594 3.386719 73.546875 3.378906 73.523438 C 3.410156 73.472656 3.398438 73.421875 3.382812 73.363281 C 3.453125 73.035156 3.410156 72.613281 3.445312 72.242188 C 3.472656 72.332031 3.4375 72.464844 3.476562 72.546875 C 3.492188 72.53125 3.46875 72.453125 3.507812 72.472656 C 3.511719 72.429688 3.488281 72.433594 3.492188 72.394531 C 3.5 72.382812 3.515625 72.382812 3.523438 72.394531 C 3.507812 72.320312 3.515625 72.175781 3.554688 72.082031 C 3.550781 72.113281 3.550781 72.140625 3.550781 72.167969 C 3.570312 71.972656 3.617188 71.667969 3.617188 71.4375 C 3.648438 71.417969 3.617188 71.398438 3.636719 71.324219 Z M 3.34375 78.144531 C 3.339844 78.097656 3.347656 78.046875 3.367188 78.089844 C 3.371094 78.050781 3.355469 78.039062 3.351562 78.011719 C 3.351562 78.050781 3.335938 78.035156 3.328125 78.019531 C 3.347656 78.058594 3.300781 78.136719 3.34375 78.144531 Z M 3.429688 73.53125 C 3.429688 73.546875 3.421875 73.550781 3.4375 73.550781 C 3.4375 73.503906 3.433594 73.457031 3.4375 73.429688 C 3.410156 73.429688 3.414062 73.511719 3.429688 73.53125 Z M 3.511719 76.15625 C 3.535156 76.164062 3.527344 76.101562 3.515625 76.109375 C 3.511719 76.132812 3.503906 76.136719 3.511719 76.15625 Z M 3.527344 76.089844 C 3.523438 76.058594 3.539062 76 3.523438 75.984375 C 3.519531 76.035156 3.5 76.054688 3.527344 76.089844 Z M 3.785156 77.507812 C 3.804688 77.480469 3.78125 77.425781 3.804688 77.421875 C 3.804688 77.394531 3.789062 77.375 3.800781 77.355469 C 3.792969 77.355469 3.785156 77.355469 3.773438 77.355469 C 3.78125 77.402344 3.773438 77.46875 3.785156 77.507812 Z M 4.210938 73.074219 C 4.207031 73.046875 4.207031 73.003906 4.1875 72.996094 C 4.1875 73.035156 4.179688 73.082031 4.210938 73.074219 Z M 4.257812 72.867188 C 4.25 72.734375 4.238281 72.921875 4.257812 72.941406 C 4.257812 72.910156 4.261719 72.886719 4.257812 72.867188 Z M 4.425781 81.480469 C 4.429688 81.472656 4.433594 81.421875 4.414062 81.421875 C 4.414062 81.449219 4.410156 81.480469 4.425781 81.480469 Z M 4.84375 78.660156 C 4.820312 78.648438 4.816406 78.714844 4.828125 78.726562 C 4.824219 78.6875 4.851562 78.703125 4.84375 78.660156 Z M 4.847656 78.507812 C 4.859375 78.425781 4.851562 78.351562 4.859375 78.25 C 4.847656 78.304688 4.824219 78.453125 4.847656 78.507812 Z M 4.863281 78.015625 C 4.863281 78.03125 4.863281 78.046875 4.847656 78.042969 C 4.859375 78.101562 4.84375 78.1875 4.847656 78.234375 C 4.871094 78.128906 4.875 78.078125 4.863281 78.015625 Z M 4.867188 79.011719 C 4.875 79.078125 4.847656 79.167969 4.871094 79.191406 C 4.890625 79.082031 4.902344 78.835938 4.878906 78.707031 C 4.871094 78.808594 4.855469 78.867188 4.863281 78.964844 C 4.886719 78.890625 4.851562 79.03125 4.855469 79.03125 C 4.855469 79.019531 4.863281 79.015625 4.867188 79.011719 Z M 4.890625 77.949219 C 4.890625 77.925781 4.890625 77.90625 4.890625 77.882812 C 4.867188 77.878906 4.878906 77.945312 4.890625 77.949219 Z M 4.878906 78.679688 C 4.878906 78.683594 4.882812 78.691406 4.886719 78.6875 C 4.890625 78.648438 4.886719 78.519531 4.882812 78.621094 C 4.867188 78.640625 4.886719 78.652344 4.875 78.671875 C 4.871094 78.671875 4.867188 78.671875 4.867188 78.679688 C 4.871094 78.679688 4.875 78.679688 4.878906 78.679688 Z M 4.90625 79.222656 C 4.917969 79.230469 4.921875 79.257812 4.929688 79.269531 C 4.945312 79.0625 4.945312 78.710938 4.945312 78.472656 C 4.90625 78.683594 4.933594 78.972656 4.90625 79.222656 Z M 5.34375 72.414062 C 5.386719 72.316406 5.402344 72.175781 5.402344 72.054688 C 5.390625 72.179688 5.328125 72.3125 5.34375 72.414062 Z M 5.398438 72.832031 C 5.417969 72.800781 5.414062 72.722656 5.398438 72.691406 C 5.414062 72.691406 5.421875 72.6875 5.425781 72.671875 C 5.414062 72.65625 5.414062 72.679688 5.402344 72.660156 C 5.375 72.714844 5.386719 72.769531 5.398438 72.832031 Z M 5.398438 73.003906 C 5.398438 72.964844 5.414062 72.953125 5.410156 72.910156 C 5.375 72.910156 5.386719 73.003906 5.398438 73.003906 Z M 5.472656 72.179688 C 5.480469 72.148438 5.480469 72.121094 5.480469 72.066406 C 5.453125 72.066406 5.46875 72.148438 5.472656 72.179688 Z M 5.523438 80.640625 C 5.535156 80.664062 5.511719 80.730469 5.527344 80.761719 C 5.546875 80.742188 5.546875 80.652344 5.523438 80.640625 Z M 5.671875 76.511719 C 5.675781 76.546875 5.65625 76.566406 5.667969 76.589844 C 5.699219 76.554688 5.691406 76.472656 5.691406 76.410156 C 5.691406 76.300781 5.679688 76.199219 5.691406 76.09375 C 5.65625 76.195312 5.667969 76.433594 5.671875 76.511719 Z M 5.6875 75.941406 C 5.695312 75.902344 5.691406 75.804688 5.679688 75.742188 C 5.6875 75.8125 5.652344 75.933594 5.6875 75.941406 Z M 5.6875 75.363281 C 5.714844 75.367188 5.683594 75.457031 5.710938 75.460938 C 5.722656 75.410156 5.714844 75.378906 5.707031 75.335938 C 5.722656 75.332031 5.726562 75.328125 5.746094 75.308594 C 5.695312 75.109375 5.789062 74.921875 5.738281 74.730469 C 5.707031 74.9375 5.730469 75.15625 5.6875 75.363281 Z M 5.675781 77.109375 C 5.675781 77.160156 5.648438 77.21875 5.6875 77.242188 C 5.703125 77.074219 5.703125 76.902344 5.671875 76.730469 C 5.667969 76.855469 5.679688 76.992188 5.675781 77.109375 Z M 5.675781 77.109375 " fill-opacity="1" fill-rule="evenodd"></path></g></g></g><g fill="#49326b" fill-opacity="1"><g transform="translate(38.680469, 62.342742)"><g><path d="M 18.5 -19.859375 C 19.253906 -19.859375 22.421875 -19.910156 23.175781 -20.011719 C 23.78125 -20.011719 24.285156 -20.363281 24.484375 -20.863281 C 25.039062 -22.171875 25.941406 -24.433594 25.941406 -26.34375 C 25.941406 -30.769531 17.144531 -33.734375 14.832031 -33.734375 C 6.9375 -33.734375 1.257812 -22.121094 1.257812 -12.921875 C 1.257812 -10.105469 2.011719 -7.542969 3.316406 -5.53125 C 5.277344 -2.5625 10.609375 0.101562 13.824219 0.101562 C 17.445312 0.101562 21.367188 -2.964844 22.875 -4.976562 C 23.078125 -5.230469 23.175781 -5.480469 23.175781 -5.78125 C 23.175781 -6.132812 23.078125 -6.386719 22.925781 -6.738281 C 22.726562 -7.238281 21.667969 -9.601562 21.214844 -10.15625 C 21.015625 -10.40625 20.8125 -10.507812 20.460938 -10.507812 C 20.160156 -10.507812 19.859375 -10.207031 19.859375 -10.207031 C 18.601562 -9.148438 15.484375 -6.886719 13.222656 -6.886719 C 10.960938 -6.886719 8.746094 -8.597656 8.746094 -13.375 C 8.746094 -20.210938 13.070312 -27.601562 16.492188 -27.601562 C 18 -27.601562 18.5 -26.195312 18.5 -24.484375 C 18.5 -23.175781 18.199219 -22.019531 17.847656 -20.714844 C 17.847656 -20.714844 17.796875 -20.5625 17.796875 -20.460938 C 17.796875 -20.109375 18.097656 -19.859375 18.5 -19.859375 Z M 18.5 -19.859375 "></path></g></g></g><g fill="#49326b" fill-opacity="1"><g transform="translate(66.367922, 73.421)"><g><path d="M 18.5 -19.859375 C 19.253906 -19.859375 22.421875 -19.910156 23.175781 -20.011719 C 23.78125 -20.011719 24.285156 -20.363281 24.484375 -20.863281 C 25.039062 -22.171875 25.941406 -24.433594 25.941406 -26.34375 C 25.941406 -30.769531 17.144531 -33.734375 14.832031 -33.734375 C 6.9375 -33.734375 1.257812 -22.121094 1.257812 -12.921875 C 1.257812 -10.105469 2.011719 -7.542969 3.316406 -5.53125 C 5.277344 -2.5625 10.609375 0.101562 13.824219 0.101562 C 17.445312 0.101562 21.367188 -2.964844 22.875 -4.976562 C 23.078125 -5.230469 23.175781 -5.480469 23.175781 -5.78125 C 23.175781 -6.132812 23.078125 -6.386719 22.925781 -6.738281 C 22.726562 -7.238281 21.667969 -9.601562 21.214844 -10.15625 C 21.015625 -10.40625 20.8125 -10.507812 20.460938 -10.507812 C 20.160156 -10.507812 19.859375 -10.207031 19.859375 -10.207031 C 18.601562 -9.148438 15.484375 -6.886719 13.222656 -6.886719 C 10.960938 -6.886719 8.746094 -8.597656 8.746094 -13.375 C 8.746094 -20.210938 13.070312 -27.601562 16.492188 -27.601562 C 18 -27.601562 18.5 -26.195312 18.5 -24.484375 C 18.5 -23.175781 18.199219 -22.019531 17.847656 -20.714844 C 17.847656 -20.714844 17.796875 -20.5625 17.796875 -20.460938 C 17.796875 -20.109375 18.097656 -19.859375 18.5 -19.859375 Z M 18.5 -19.859375 "></path></g></g></g></svg>