<svg xmlns="http://www.w3.org/2000/svg" xmlns:xlink="http://www.w3.org/1999/xlink" width="334" zoomAndPan="magnify" viewBox="0 0 250.5 87.749997" height="117" preserveAspectRatio="xMidYMid meet" version="1.0"><defs><g/><clipPath id="2d9ab4e334"><path d="M 244 78 L 245 78 L 245 79 L 244 79 Z M 244 78 " clip-rule="nonzero"/></clipPath><clipPath id="3b4516570d"><path d="M 249.597656 9.25 L 248 85.515625 L 243.515625 85.421875 L 245.109375 9.15625 Z M 249.597656 9.25 " clip-rule="nonzero"/></clipPath><clipPath id="cd72cee363"><path d="M 249.597656 9.25 L 248 85.515625 L 243.515625 85.421875 L 245.109375 9.15625 Z M 249.597656 9.25 " clip-rule="nonzero"/></clipPath><clipPath id="01edb9c84f"><path d="M 244 9 L 248 9 L 248 85 L 244 85 Z M 244 9 " clip-rule="nonzero"/></clipPath><clipPath id="7b9568184e"><path d="M 249.597656 9.25 L 248 85.515625 L 243.515625 85.421875 L 245.109375 9.15625 Z M 249.597656 9.25 " clip-rule="nonzero"/></clipPath><clipPath id="561513cb3f"><path d="M 249.597656 9.25 L 248 85.515625 L 243.515625 85.421875 L 245.109375 9.15625 Z M 249.597656 9.25 " clip-rule="nonzero"/></clipPath><clipPath id="e90a973fb3"><path d="M 248 71 L 249 71 L 249 73 L 248 73 Z M 248 71 " clip-rule="nonzero"/></clipPath><clipPath id="c30b983dcd"><path d="M 249.597656 9.25 L 248 85.515625 L 243.515625 85.421875 L 245.109375 9.15625 Z M 249.597656 9.25 " clip-rule="nonzero"/></clipPath><clipPath id="19e1fff231"><path d="M 249.597656 9.25 L 248 85.515625 L 243.515625 85.421875 L 245.109375 9.15625 Z M 249.597656 9.25 " clip-rule="nonzero"/></clipPath><clipPath id="1e228e32da"><path d="M 248 73 L 249 73 L 249 74 L 248 74 Z M 248 73 " clip-rule="nonzero"/></clipPath><clipPath id="6d0f8f519e"><path d="M 249.597656 9.25 L 248 85.515625 L 243.515625 85.421875 L 245.109375 9.15625 Z M 249.597656 9.25 " clip-rule="nonzero"/></clipPath><clipPath id="26f2a2701c"><path d="M 249.597656 9.25 L 248 85.515625 L 243.515625 85.421875 L 245.109375 9.15625 Z M 249.597656 9.25 " clip-rule="nonzero"/></clipPath><clipPath id="bc31ce1783"><path d="M 248 70 L 249 70 L 249 71 L 248 71 Z M 248 70 " clip-rule="nonzero"/></clipPath><clipPath id="6ba4016da1"><path d="M 249.597656 9.25 L 248 85.515625 L 243.515625 85.421875 L 245.109375 9.15625 Z M 249.597656 9.25 " clip-rule="nonzero"/></clipPath><clipPath id="08e643d131"><path d="M 249.597656 9.25 L 248 85.515625 L 243.515625 85.421875 L 245.109375 9.15625 Z M 249.597656 9.25 " clip-rule="nonzero"/></clipPath><clipPath id="c747f38786"><path d="M 123 7.753906 L 125 7.753906 L 125 9 L 123 9 Z M 123 7.753906 " clip-rule="nonzero"/></clipPath><clipPath id="ed12029a9b"><path d="M 115 7.753906 L 215 7.753906 L 215 12.988281 L 115 12.988281 Z M 115 7.753906 " clip-rule="nonzero"/></clipPath><clipPath id="bba33675d3"><path d="M 132 12 L 134 12 L 134 12.988281 L 132 12.988281 Z M 132 12 " clip-rule="nonzero"/></clipPath><clipPath id="fe47c39863"><path d="M 130 12 L 132 12 L 132 12.988281 L 130 12.988281 Z M 130 12 " clip-rule="nonzero"/></clipPath><clipPath id="9688abb067"><path d="M 134 12 L 136 12 L 136 12.988281 L 134 12.988281 Z M 134 12 " clip-rule="nonzero"/></clipPath><clipPath id="2c5b41843c"><path d="M 123 79 L 125 79 L 125 80 L 123 80 Z M 123 79 " clip-rule="nonzero"/></clipPath><clipPath id="6b5fe9b926"><path d="M 215.644531 86.789062 L 114.707031 84.496094 L 114.828125 79.261719 L 215.765625 81.554688 Z M 215.644531 86.789062 " clip-rule="nonzero"/></clipPath><clipPath id="6078071fe2"><path d="M 215.644531 86.789062 L 114.707031 84.496094 L 114.828125 79.261719 L 215.765625 81.554688 Z M 215.644531 86.789062 " clip-rule="nonzero"/></clipPath><clipPath id="6693dee004"><path d="M 115 79 L 215 79 L 215 85 L 115 85 Z M 115 79 " clip-rule="nonzero"/></clipPath><clipPath id="5fe01e1b8c"><path d="M 215.644531 86.789062 L 114.707031 84.496094 L 114.828125 79.261719 L 215.765625 81.554688 Z M 215.644531 86.789062 " clip-rule="nonzero"/></clipPath><clipPath id="204843014d"><path d="M 215.644531 86.789062 L 114.707031 84.496094 L 114.828125 79.261719 L 215.765625 81.554688 Z M 215.644531 86.789062 " clip-rule="nonzero"/></clipPath><clipPath id="5b733d0ef3"><path d="M 132 84 L 134 84 L 134 85 L 132 85 Z M 132 84 " clip-rule="nonzero"/></clipPath><clipPath id="6ef1931e03"><path d="M 215.644531 86.789062 L 114.707031 84.496094 L 114.828125 79.261719 L 215.765625 81.554688 Z M 215.644531 86.789062 " clip-rule="nonzero"/></clipPath><clipPath id="0868bc61c5"><path d="M 215.644531 86.789062 L 114.707031 84.496094 L 114.828125 79.261719 L 215.765625 81.554688 Z M 215.644531 86.789062 " clip-rule="nonzero"/></clipPath><clipPath id="f84f443074"><path d="M 130 84 L 132 84 L 132 85 L 130 85 Z M 130 84 " clip-rule="nonzero"/></clipPath><clipPath id="d09b018842"><path d="M 215.644531 86.789062 L 114.707031 84.496094 L 114.828125 79.261719 L 215.765625 81.554688 Z M 215.644531 86.789062 " clip-rule="nonzero"/></clipPath><clipPath id="008f5ef381"><path d="M 215.644531 86.789062 L 114.707031 84.496094 L 114.828125 79.261719 L 215.765625 81.554688 Z M 215.644531 86.789062 " clip-rule="nonzero"/></clipPath><clipPath id="1187f0c232"><path d="M 134 84 L 136 84 L 136 85 L 134 85 Z M 134 84 " clip-rule="nonzero"/></clipPath><clipPath id="f81883f409"><path d="M 215.644531 86.789062 L 114.707031 84.496094 L 114.828125 79.261719 L 215.765625 81.554688 Z M 215.644531 86.789062 " clip-rule="nonzero"/></clipPath><clipPath id="9a983ad5e8"><path d="M 215.644531 86.789062 L 114.707031 84.496094 L 114.828125 79.261719 L 215.765625 81.554688 Z M 215.644531 86.789062 " clip-rule="nonzero"/></clipPath><clipPath id="31637c51f1"><path d="M 115 11 L 119 11 L 119 26 L 115 26 Z M 115 11 " clip-rule="nonzero"/></clipPath><clipPath id="8fab6d91fb"><path d="M 115.734375 25.316406 L 116.128906 11.113281 L 119.121094 11.195312 L 118.726562 25.398438 Z M 115.734375 25.316406 " clip-rule="nonzero"/></clipPath><clipPath id="0db6a7dee7"><path d="M 115.734375 25.316406 L 116.128906 11.113281 L 119.121094 11.195312 L 118.726562 25.398438 Z M 115.734375 25.316406 " clip-rule="nonzero"/></clipPath><clipPath id="03b6d74e69"><path d="M 116 67 L 120 67 L 120 82 L 116 82 Z M 116 67 " clip-rule="nonzero"/></clipPath><clipPath id="3c7fbb5b3e"><path d="M 116.847656 81.273438 L 117.242188 67.070312 L 120.234375 67.152344 L 119.839844 81.355469 Z M 116.847656 81.273438 " clip-rule="nonzero"/></clipPath><clipPath id="6d369a4f40"><path d="M 116.847656 81.273438 L 117.242188 67.070312 L 120.234375 67.152344 L 119.839844 81.355469 Z M 116.847656 81.273438 " clip-rule="nonzero"/></clipPath></defs><g fill="#49326b" fill-opacity="1"><g transform="translate(13.888143, 60.861418)"><g><path d="M 18.273438 -19.613281 C 19.019531 -19.613281 22.148438 -19.664062 22.894531 -19.765625 C 23.488281 -19.765625 23.984375 -20.113281 24.183594 -20.609375 C 24.730469 -21.898438 25.625 -24.132812 25.625 -26.019531 C 25.625 -30.390625 16.933594 -33.320312 14.648438 -33.320312 C 6.851562 -33.320312 1.242188 -21.851562 1.242188 -12.761719 C 1.242188 -9.980469 1.988281 -7.449219 3.277344 -5.460938 C 5.214844 -2.53125 10.476562 0.0976562 13.65625 0.0976562 C 17.230469 0.0976562 21.105469 -2.929688 22.59375 -4.917969 C 22.792969 -5.164062 22.894531 -5.414062 22.894531 -5.710938 C 22.894531 -6.058594 22.792969 -6.304688 22.644531 -6.652344 C 22.445312 -7.152344 21.402344 -9.484375 20.957031 -10.03125 C 20.757812 -10.28125 20.558594 -10.378906 20.210938 -10.378906 C 19.914062 -10.378906 19.613281 -10.082031 19.613281 -10.082031 C 18.375 -9.039062 15.292969 -6.804688 13.058594 -6.804688 C 10.824219 -6.804688 8.640625 -8.492188 8.640625 -13.210938 C 8.640625 -19.960938 12.910156 -27.261719 16.289062 -27.261719 C 17.777344 -27.261719 18.273438 -25.871094 18.273438 -24.183594 C 18.273438 -22.894531 17.976562 -21.75 17.628906 -20.460938 C 17.628906 -20.460938 17.578125 -20.308594 17.578125 -20.210938 C 17.578125 -19.863281 17.878906 -19.613281 18.273438 -19.613281 Z M 18.273438 -19.613281 "/></g></g></g><g fill="#493979" fill-opacity="1"><g transform="translate(139.439636, 60.475126)"><g><path d="M 18.273438 -19.613281 C 19.019531 -19.613281 22.148438 -19.664062 22.890625 -19.761719 C 23.488281 -19.761719 23.984375 -20.109375 24.183594 -20.609375 C 24.730469 -21.898438 25.621094 -24.132812 25.621094 -26.019531 C 25.621094 -30.390625 16.933594 -33.320312 14.648438 -33.320312 C 6.851562 -33.320312 1.242188 -21.847656 1.242188 -12.761719 C 1.242188 -9.980469 1.984375 -7.449219 3.277344 -5.460938 C 5.214844 -2.53125 10.476562 0.0976562 13.65625 0.0976562 C 17.230469 0.0976562 21.105469 -2.929688 22.59375 -4.917969 C 22.792969 -5.164062 22.890625 -5.414062 22.890625 -5.710938 C 22.890625 -6.058594 22.792969 -6.304688 22.644531 -6.652344 C 22.445312 -7.152344 21.402344 -9.484375 20.957031 -10.03125 C 20.757812 -10.277344 20.558594 -10.378906 20.210938 -10.378906 C 19.914062 -10.378906 19.613281 -10.082031 19.613281 -10.082031 C 18.375 -9.039062 15.292969 -6.804688 13.058594 -6.804688 C 10.824219 -6.804688 8.640625 -8.492188 8.640625 -13.207031 C 8.640625 -19.960938 12.910156 -27.261719 16.289062 -27.261719 C 17.777344 -27.261719 18.273438 -25.871094 18.273438 -24.183594 C 18.273438 -22.890625 17.976562 -21.75 17.628906 -20.457031 C 17.628906 -20.457031 17.578125 -20.308594 17.578125 -20.210938 C 17.578125 -19.863281 17.875 -19.613281 18.273438 -19.613281 Z M 18.273438 -19.613281 "/></g></g></g><g fill="#393540" fill-opacity="1"><g transform="translate(38.477972, 56.983079)"><g><path d="M 6.703125 -3.316406 C 5.066406 -3.316406 4.359375 -4.878906 4.359375 -6.890625 C 4.359375 -10.617188 6.445312 -15.382812 9.238281 -15.382812 C 10.765625 -15.382812 11.546875 -13.855469 11.546875 -11.695312 C 11.546875 -8.082031 9.683594 -3.316406 6.703125 -3.316406 Z M 15.496094 -11.433594 C 15.457031 -12.628906 15.199219 -13.929688 14.898438 -14.527344 C 13.746094 -16.875 10.390625 -18.808594 8.382812 -18.808594 C 3.242188 -18.808594 0.519531 -11.957031 0.519531 -7.449219 C 0.519531 -5.511719 1.082031 -3.726562 2.273438 -2.347656 C 3.167969 -1.304688 5.699219 0 7.746094 0 C 13.335938 0 15.496094 -7.898438 15.496094 -11.433594 Z M 15.496094 -11.433594 "/></g></g></g><g fill="#393540" fill-opacity="1"><g transform="translate(54.867333, 56.983079)"><g><path d="M 6.703125 -15.160156 C 6.59375 -15.046875 6.519531 -14.972656 6.445312 -14.972656 C 6.332031 -14.972656 6.296875 -15.085938 6.296875 -15.308594 C 6.296875 -16.054688 6.332031 -16.761719 6.332031 -17.246094 C 6.332031 -17.617188 6.109375 -18.066406 5.734375 -18.214844 C 5.4375 -18.328125 3.910156 -18.773438 3.5 -18.773438 C 3.167969 -18.773438 2.90625 -18.550781 2.832031 -18.214844 C 2.347656 -15.011719 0.746094 -5.101562 0.1875 -2.085938 C 0.1875 -2.085938 0.113281 -1.675781 0.113281 -1.5625 C 0.113281 -1.15625 0.296875 -0.855469 0.597656 -0.707031 C 0.855469 -0.597656 2.605469 -0.0742188 2.941406 -0.0742188 C 3.277344 -0.0742188 3.539062 -0.296875 3.613281 -0.632812 C 3.984375 -2.570312 4.769531 -6.703125 5.4375 -9.984375 C 5.511719 -10.355469 5.773438 -10.875 6.035156 -11.175781 C 8.15625 -13.484375 10.765625 -14.9375 11.695312 -14.9375 C 12.03125 -14.9375 12.179688 -14.414062 12.179688 -13.597656 C 12.179688 -10.726562 10.652344 -4.46875 10.058594 -2.160156 C 10.058594 -2.160156 9.945312 -1.714844 9.945312 -1.527344 C 9.945312 -1.230469 10.09375 -0.929688 10.390625 -0.78125 C 10.800781 -0.558594 12.402344 -0.0390625 12.851562 -0.0390625 C 13.1875 -0.0390625 13.484375 -0.296875 13.597656 -0.597656 C 14.9375 -5.550781 16.128906 -12.554688 16.128906 -14.304688 C 16.128906 -16.164062 14.003906 -18.886719 11.992188 -18.886719 C 10.691406 -18.886719 8.605469 -17.246094 6.703125 -15.160156 Z M 6.703125 -15.160156 "/></g></g></g><g fill="#393540" fill-opacity="1"><g transform="translate(72.038944, 56.983079)"><g><path d="M 6.703125 -15.160156 C 6.59375 -15.046875 6.519531 -14.972656 6.445312 -14.972656 C 6.332031 -14.972656 6.296875 -15.085938 6.296875 -15.308594 C 6.296875 -16.054688 6.332031 -16.761719 6.332031 -17.246094 C 6.332031 -17.617188 6.109375 -18.066406 5.734375 -18.214844 C 5.4375 -18.328125 3.910156 -18.773438 3.5 -18.773438 C 3.167969 -18.773438 2.90625 -18.550781 2.832031 -18.214844 C 2.347656 -15.011719 0.746094 -5.101562 0.1875 -2.085938 C 0.1875 -2.085938 0.113281 -1.675781 0.113281 -1.5625 C 0.113281 -1.15625 0.296875 -0.855469 0.597656 -0.707031 C 0.855469 -0.597656 2.605469 -0.0742188 2.941406 -0.0742188 C 3.277344 -0.0742188 3.539062 -0.296875 3.613281 -0.632812 C 3.984375 -2.570312 4.769531 -6.703125 5.4375 -9.984375 C 5.511719 -10.355469 5.773438 -10.875 6.035156 -11.175781 C 8.15625 -13.484375 10.765625 -14.9375 11.695312 -14.9375 C 12.03125 -14.9375 12.179688 -14.414062 12.179688 -13.597656 C 12.179688 -10.726562 10.652344 -4.46875 10.058594 -2.160156 C 10.058594 -2.160156 9.945312 -1.714844 9.945312 -1.527344 C 9.945312 -1.230469 10.09375 -0.929688 10.390625 -0.78125 C 10.800781 -0.558594 12.402344 -0.0390625 12.851562 -0.0390625 C 13.1875 -0.0390625 13.484375 -0.296875 13.597656 -0.597656 C 14.9375 -5.550781 16.128906 -12.554688 16.128906 -14.304688 C 16.128906 -16.164062 14.003906 -18.886719 11.992188 -18.886719 C 10.691406 -18.886719 8.605469 -17.246094 6.703125 -15.160156 Z M 6.703125 -15.160156 "/></g></g></g><g fill="#393540" fill-opacity="1"><g transform="translate(89.210555, 56.983079)"><g><path d="M 0.519531 -7.972656 C 0.519531 -4.917969 1.339844 -3.167969 2.234375 -2.347656 C 3.726562 -0.96875 5.8125 0 7.375 0 C 9.125 0 10.652344 -1.003906 12.03125 -2.046875 C 12.253906 -2.234375 12.441406 -2.496094 12.441406 -2.867188 C 12.441406 -3.128906 11.84375 -4.359375 11.660156 -4.730469 C 11.511719 -4.992188 11.398438 -5.101562 11.175781 -5.101562 C 11.0625 -5.101562 10.914062 -5.027344 10.914062 -5.027344 C 9.609375 -4.359375 8.34375 -3.6875 7.003906 -3.6875 C 4.992188 -3.6875 4.320312 -5.402344 4.320312 -7.5625 C 4.320312 -7.859375 4.433594 -8.082031 4.65625 -8.082031 C 4.730469 -8.082031 5.027344 -8.007812 5.027344 -8.007812 C 5.585938 -7.898438 6.21875 -7.820312 6.929688 -7.820312 C 11.957031 -7.820312 14.117188 -11.25 14.117188 -13.632812 C 14.117188 -14.191406 13.96875 -15.046875 13.558594 -15.757812 C 12.738281 -17.132812 9.984375 -18.808594 8.34375 -18.808594 C 3.949219 -18.808594 0.519531 -13 0.519531 -7.972656 Z M 8.976562 -15.757812 C 9.984375 -15.757812 10.316406 -14.898438 10.316406 -13.96875 C 10.316406 -12.476562 9.015625 -10.542969 5.886719 -10.542969 C 5.511719 -10.542969 5.066406 -10.542969 5.066406 -10.949219 C 5.066406 -12.21875 7.300781 -15.757812 8.976562 -15.757812 Z M 8.976562 -15.757812 "/></g></g></g><g fill="#393540" fill-opacity="1"><g transform="translate(103.960993, 56.983079)"><g><path d="M 12.367188 -10.578125 C 12.738281 -10.578125 13.1875 -10.875 13.335938 -11.175781 C 13.855469 -12.179688 14.230469 -13.707031 14.230469 -14.527344 C 14.230469 -16.613281 9.945312 -18.808594 8.34375 -18.808594 C 4.058594 -18.808594 0.484375 -13.335938 0.484375 -7.226562 C 0.484375 -5.175781 1.453125 -3.277344 2.347656 -2.382812 C 3.574219 -1.15625 5.660156 0 7.523438 0 C 9.386719 0 10.839844 -1.003906 12.253906 -2.085938 C 12.476562 -2.273438 12.628906 -2.53125 12.628906 -2.867188 C 12.628906 -3.089844 12.515625 -3.316406 12.515625 -3.316406 L 11.882812 -4.65625 C 11.734375 -4.953125 11.621094 -5.101562 11.398438 -5.101562 C 11.285156 -5.101562 11.175781 -5.066406 11.101562 -5.027344 C 10.46875 -4.730469 8.902344 -3.6875 7.078125 -3.6875 C 5.4375 -3.6875 4.320312 -5.140625 4.320312 -7.339844 C 4.320312 -11.660156 7.039062 -15.53125 9.273438 -15.53125 C 10.019531 -15.53125 10.355469 -15.046875 10.355469 -14.078125 C 10.355469 -13.148438 9.832031 -11.433594 9.832031 -11.101562 C 9.832031 -10.800781 10.058594 -10.578125 10.355469 -10.578125 Z M 12.367188 -10.578125 "/></g></g></g><g fill="#393540" fill-opacity="1"><g transform="translate(119.009434, 56.983079)"><g><path d="M 12.144531 -15.941406 C 12.253906 -16.464844 12.367188 -17.765625 12.367188 -18.066406 C 12.367188 -18.511719 12.144531 -18.808594 11.769531 -18.847656 C 11.101562 -18.921875 10.019531 -18.921875 8.863281 -18.921875 C 8.53125 -18.921875 8.34375 -19.144531 8.34375 -19.445312 C 8.34375 -19.742188 9.164062 -22.648438 9.460938 -23.617188 C 9.460938 -23.617188 9.574219 -23.988281 9.574219 -24.136719 C 9.574219 -24.398438 9.425781 -24.660156 9.164062 -24.769531 C 8.53125 -25.03125 7.152344 -25.476562 6.742188 -25.476562 C 6.40625 -25.476562 6.109375 -25.253906 5.996094 -24.992188 C 5.550781 -23.949219 4.917969 -21.902344 4.285156 -19.480469 C 4.171875 -19.144531 4.023438 -18.847656 3.613281 -18.808594 L 2.011719 -18.699219 C 1.640625 -18.660156 1.339844 -18.328125 1.339844 -17.917969 C 1.339844 -17.917969 1.304688 -17.320312 1.304688 -16.984375 C 1.304688 -16.648438 1.304688 -16.277344 1.339844 -16.015625 C 1.378906 -15.644531 1.75 -15.382812 2.125 -15.382812 L 2.71875 -15.382812 C 3.015625 -15.382812 3.167969 -15.199219 3.167969 -14.9375 C 3.167969 -14.75 1.9375 -9.347656 1.9375 -6.257812 C 1.9375 -3.5 3.242188 -1.042969 5.996094 -0.113281 C 6.109375 -0.0742188 6.257812 -0.0390625 6.40625 -0.0390625 C 6.667969 -0.0390625 6.964844 -0.1875 7.152344 -0.410156 C 7.597656 -0.96875 8.382812 -2.308594 8.382812 -2.644531 C 8.382812 -2.90625 8.230469 -3.128906 8.007812 -3.242188 C 6.371094 -4.058594 5.8125 -5.175781 5.8125 -6.929688 C 5.8125 -7.933594 6.445312 -11.210938 7.1875 -14.675781 C 7.300781 -15.046875 7.523438 -15.347656 7.972656 -15.347656 C 9.347656 -15.347656 10.617188 -15.308594 11.324219 -15.308594 C 11.695312 -15.308594 12.070312 -15.570312 12.144531 -15.941406 Z M 12.144531 -15.941406 "/></g></g></g><g fill="#393540" fill-opacity="1"><g transform="translate(164.029474, 56.983079)"><g><path d="M 6.703125 -3.316406 C 5.066406 -3.316406 4.359375 -4.878906 4.359375 -6.890625 C 4.359375 -10.617188 6.445312 -15.382812 9.238281 -15.382812 C 10.765625 -15.382812 11.546875 -13.855469 11.546875 -11.695312 C 11.546875 -8.082031 9.683594 -3.316406 6.703125 -3.316406 Z M 15.496094 -11.433594 C 15.457031 -12.628906 15.199219 -13.929688 14.898438 -14.527344 C 13.746094 -16.875 10.390625 -18.808594 8.382812 -18.808594 C 3.242188 -18.808594 0.519531 -11.957031 0.519531 -7.449219 C 0.519531 -5.511719 1.082031 -3.726562 2.273438 -2.347656 C 3.167969 -1.304688 5.699219 0 7.746094 0 C 13.335938 0 15.496094 -7.898438 15.496094 -11.433594 Z M 15.496094 -11.433594 "/></g></g></g><g fill="#393540" fill-opacity="1"><g transform="translate(180.418835, 56.983079)"><g><path d="M 3.800781 -0.632812 C 4.878906 -10.207031 7.375 -20.488281 8.679688 -24.0625 C 8.679688 -24.0625 8.753906 -24.25 8.753906 -24.398438 C 8.753906 -24.695312 8.605469 -24.957031 8.304688 -25.066406 C 7.972656 -25.21875 6.183594 -25.738281 5.773438 -25.738281 C 5.4375 -25.738281 5.175781 -25.515625 5.027344 -25.21875 C 3.5 -21.605469 0.519531 -7.597656 0.261719 -1.5625 C 0.261719 -1.191406 0.410156 -0.820312 0.855469 -0.632812 C 1.339844 -0.410156 2.71875 -0.0390625 3.167969 -0.0390625 C 3.5 -0.0390625 3.761719 -0.296875 3.800781 -0.632812 Z M 3.800781 -0.632812 "/></g></g></g><g fill="#393540" fill-opacity="1"><g transform="translate(187.421578, 56.983079)"><g><path d="M 3.800781 -0.632812 C 4.878906 -10.207031 7.375 -20.488281 8.679688 -24.0625 C 8.679688 -24.0625 8.753906 -24.25 8.753906 -24.398438 C 8.753906 -24.695312 8.605469 -24.957031 8.304688 -25.066406 C 7.972656 -25.21875 6.183594 -25.738281 5.773438 -25.738281 C 5.4375 -25.738281 5.175781 -25.515625 5.027344 -25.21875 C 3.5 -21.605469 0.519531 -7.597656 0.261719 -1.5625 C 0.261719 -1.191406 0.410156 -0.820312 0.855469 -0.632812 C 1.339844 -0.410156 2.71875 -0.0390625 3.167969 -0.0390625 C 3.5 -0.0390625 3.761719 -0.296875 3.800781 -0.632812 Z M 3.800781 -0.632812 "/></g></g></g><g fill="#393540" fill-opacity="1"><g transform="translate(194.424322, 56.983079)"><g><path d="M 0.519531 -7.972656 C 0.519531 -4.917969 1.339844 -3.167969 2.234375 -2.347656 C 3.726562 -0.96875 5.8125 0 7.375 0 C 9.125 0 10.652344 -1.003906 12.03125 -2.046875 C 12.253906 -2.234375 12.441406 -2.496094 12.441406 -2.867188 C 12.441406 -3.128906 11.84375 -4.359375 11.660156 -4.730469 C 11.511719 -4.992188 11.398438 -5.101562 11.175781 -5.101562 C 11.0625 -5.101562 10.914062 -5.027344 10.914062 -5.027344 C 9.609375 -4.359375 8.34375 -3.6875 7.003906 -3.6875 C 4.992188 -3.6875 4.320312 -5.402344 4.320312 -7.5625 C 4.320312 -7.859375 4.433594 -8.082031 4.65625 -8.082031 C 4.730469 -8.082031 5.027344 -8.007812 5.027344 -8.007812 C 5.585938 -7.898438 6.21875 -7.820312 6.929688 -7.820312 C 11.957031 -7.820312 14.117188 -11.25 14.117188 -13.632812 C 14.117188 -14.191406 13.96875 -15.046875 13.558594 -15.757812 C 12.738281 -17.132812 9.984375 -18.808594 8.34375 -18.808594 C 3.949219 -18.808594 0.519531 -13 0.519531 -7.972656 Z M 8.976562 -15.757812 C 9.984375 -15.757812 10.316406 -14.898438 10.316406 -13.96875 C 10.316406 -12.476562 9.015625 -10.542969 5.886719 -10.542969 C 5.511719 -10.542969 5.066406 -10.542969 5.066406 -10.949219 C 5.066406 -12.21875 7.300781 -15.757812 8.976562 -15.757812 Z M 8.976562 -15.757812 "/></g></g></g><g fill="#393540" fill-opacity="1"><g transform="translate(209.174761, 56.983079)"><g><path d="M 12.367188 -10.578125 C 12.738281 -10.578125 13.1875 -10.875 13.335938 -11.175781 C 13.855469 -12.179688 14.230469 -13.707031 14.230469 -14.527344 C 14.230469 -16.613281 9.945312 -18.808594 8.34375 -18.808594 C 4.058594 -18.808594 0.484375 -13.335938 0.484375 -7.226562 C 0.484375 -5.175781 1.453125 -3.277344 2.347656 -2.382812 C 3.574219 -1.15625 5.660156 0 7.523438 0 C 9.386719 0 10.839844 -1.003906 12.253906 -2.085938 C 12.476562 -2.273438 12.628906 -2.53125 12.628906 -2.867188 C 12.628906 -3.089844 12.515625 -3.316406 12.515625 -3.316406 L 11.882812 -4.65625 C 11.734375 -4.953125 11.621094 -5.101562 11.398438 -5.101562 C 11.285156 -5.101562 11.175781 -5.066406 11.101562 -5.027344 C 10.46875 -4.730469 8.902344 -3.6875 7.078125 -3.6875 C 5.4375 -3.6875 4.320312 -5.140625 4.320312 -7.339844 C 4.320312 -11.660156 7.039062 -15.53125 9.273438 -15.53125 C 10.019531 -15.53125 10.355469 -15.046875 10.355469 -14.078125 C 10.355469 -13.148438 9.832031 -11.433594 9.832031 -11.101562 C 9.832031 -10.800781 10.058594 -10.578125 10.355469 -10.578125 Z M 12.367188 -10.578125 "/></g></g></g><g fill="#393540" fill-opacity="1"><g transform="translate(224.223201, 56.983079)"><g><path d="M 12.144531 -15.941406 C 12.253906 -16.464844 12.367188 -17.765625 12.367188 -18.066406 C 12.367188 -18.511719 12.144531 -18.808594 11.769531 -18.847656 C 11.101562 -18.921875 10.019531 -18.921875 8.863281 -18.921875 C 8.53125 -18.921875 8.34375 -19.144531 8.34375 -19.445312 C 8.34375 -19.742188 9.164062 -22.648438 9.460938 -23.617188 C 9.460938 -23.617188 9.574219 -23.988281 9.574219 -24.136719 C 9.574219 -24.398438 9.425781 -24.660156 9.164062 -24.769531 C 8.53125 -25.03125 7.152344 -25.476562 6.742188 -25.476562 C 6.40625 -25.476562 6.109375 -25.253906 5.996094 -24.992188 C 5.550781 -23.949219 4.917969 -21.902344 4.285156 -19.480469 C 4.171875 -19.144531 4.023438 -18.847656 3.613281 -18.808594 L 2.011719 -18.699219 C 1.640625 -18.660156 1.339844 -18.328125 1.339844 -17.917969 C 1.339844 -17.917969 1.304688 -17.320312 1.304688 -16.984375 C 1.304688 -16.648438 1.304688 -16.277344 1.339844 -16.015625 C 1.378906 -15.644531 1.75 -15.382812 2.125 -15.382812 L 2.71875 -15.382812 C 3.015625 -15.382812 3.167969 -15.199219 3.167969 -14.9375 C 3.167969 -14.75 1.9375 -9.347656 1.9375 -6.257812 C 1.9375 -3.5 3.242188 -1.042969 5.996094 -0.113281 C 6.109375 -0.0742188 6.257812 -0.0390625 6.40625 -0.0390625 C 6.667969 -0.0390625 6.964844 -0.1875 7.152344 -0.410156 C 7.597656 -0.96875 8.382812 -2.308594 8.382812 -2.644531 C 8.382812 -2.90625 8.230469 -3.128906 8.007812 -3.242188 C 6.371094 -4.058594 5.8125 -5.175781 5.8125 -6.929688 C 5.8125 -7.933594 6.445312 -11.210938 7.1875 -14.675781 C 7.300781 -15.046875 7.523438 -15.347656 7.972656 -15.347656 C 9.347656 -15.347656 10.617188 -15.308594 11.324219 -15.308594 C 11.695312 -15.308594 12.070312 -15.570312 12.144531 -15.941406 Z M 12.144531 -15.941406 "/></g></g></g><path stroke-linecap="round" transform="matrix(0.747869, -0.000000000000000278, 0.000000000000000278, 0.747869, 116.100221, 9.119876)" fill="none" stroke-linejoin="miter" d="M 1.500844 1.500679 L 175.93913 1.500679 " stroke="#4d429a" stroke-width="3" stroke-opacity="1" stroke-miterlimit="4"/><path stroke-linecap="round" transform="matrix(0.00000000130528, 0.747869, -0.747869, 0.00000000130528, 248.79749, 10.245052)" fill="none" stroke-linejoin="miter" d="M 1.500444 1.499873 L 96.556956 1.499873 " stroke="#4d429a" stroke-width="3" stroke-opacity="1" stroke-miterlimit="4"/><path stroke-linecap="round" transform="matrix(0, 0.747869, -0.747869, 0, 117.967032, 10.244544)" fill="none" stroke-linejoin="miter" d="M 1.501122 1.501976 L 20.351551 1.501976 " stroke="#4d429a" stroke-width="3" stroke-opacity="1" stroke-miterlimit="4"/><path stroke-linecap="round" transform="matrix(0.747869, 0, 0, 0.747869, 116.100221, 82.452862)" fill="none" stroke-linejoin="miter" d="M 1.500844 1.499402 L 175.93913 1.499402 " stroke="#493979" stroke-width="3" stroke-opacity="1" stroke-miterlimit="4"/><path fill="#4d429a" d="M 118.339844 68.355469 L 118.339844 79.574219 C 118.339844 79.722656 118.3125 79.867188 118.253906 80.003906 C 118.199219 80.140625 118.117188 80.261719 118.011719 80.367188 C 117.90625 80.472656 117.785156 80.554688 117.648438 80.613281 C 117.511719 80.667969 117.367188 80.695312 117.21875 80.695312 C 117.070312 80.695312 116.925781 80.667969 116.789062 80.613281 C 116.652344 80.554688 116.53125 80.472656 116.425781 80.367188 C 116.320312 80.261719 116.238281 80.140625 116.183594 80.003906 C 116.125 79.867188 116.097656 79.722656 116.097656 79.574219 L 116.097656 68.355469 C 116.097656 68.207031 116.125 68.066406 116.183594 67.929688 C 116.238281 67.789062 116.320312 67.667969 116.425781 67.5625 C 116.53125 67.457031 116.652344 67.378906 116.789062 67.320312 C 116.925781 67.265625 117.070312 67.234375 117.21875 67.234375 C 117.367188 67.234375 117.511719 67.265625 117.648438 67.320312 C 117.785156 67.378906 117.90625 67.457031 118.011719 67.5625 C 118.117188 67.667969 118.199219 67.789062 118.253906 67.929688 C 118.3125 68.066406 118.339844 68.207031 118.339844 68.355469 Z M 118.339844 68.355469 " fill-opacity="1" fill-rule="nonzero"/><g clip-path="url(#2d9ab4e334)"><g clip-path="url(#3b4516570d)"><g clip-path="url(#cd72cee363)"><path fill="#4d429a" d="M 244.378906 78.28125 C 244.328125 78.246094 244.257812 78.242188 244.167969 78.3125 C 244.117188 78.363281 244.078125 78.429688 244.042969 78.5 C 243.972656 78.671875 244.109375 78.742188 244.175781 78.832031 C 244.191406 78.847656 244.210938 78.882812 244.207031 78.902344 C 244.367188 78.714844 244.425781 78.507812 244.378906 78.28125 Z M 244.378906 78.28125 " fill-opacity="1" fill-rule="nonzero"/></g></g></g><g clip-path="url(#01edb9c84f)"><g clip-path="url(#7b9568184e)"><g clip-path="url(#561513cb3f)"><path fill="#4d429a" d="M 246.617188 84.683594 C 246.753906 84.753906 246.890625 84.738281 246.824219 84.546875 C 246.761719 84.320312 246.851562 84.148438 246.925781 83.925781 C 247.109375 83.445312 247.34375 82.929688 247.355469 82.429688 C 247.367188 81.894531 247.652344 81.5 247.746094 81.035156 C 247.863281 80.484375 247.929688 79.878906 247.800781 79.355469 C 247.671875 78.816406 247.925781 78.285156 247.746094 77.832031 C 247.515625 77.253906 247.683594 76.6875 247.746094 76.152344 C 247.808594 75.652344 247.507812 75.160156 247.828125 74.648438 C 247.9375 74.496094 247.617188 74.105469 247.585938 73.828125 C 247.542969 73.394531 247.519531 72.945312 247.613281 72.53125 C 247.746094 72.015625 247.722656 71.511719 247.699219 70.976562 C 247.65625 69.625 247.652344 68.273438 247.664062 66.921875 C 247.660156 66.195312 247.761719 65.488281 247.742188 64.761719 C 247.671875 63.097656 247.761719 61.4375 247.777344 59.792969 C 247.964844 58.339844 247.820312 56.882812 247.78125 55.429688 C 247.75 54.40625 247.960938 53.390625 247.636719 52.378906 C 247.75 52.035156 247.738281 51.707031 247.746094 51.34375 C 247.726562 49.695312 247.746094 48.035156 247.761719 46.390625 C 247.777344 45.699219 247.859375 45.007812 247.667969 44.328125 C 247.539062 43.910156 247.582031 43.476562 247.746094 43.046875 C 247.929688 42.585938 247.886719 42.117188 247.617188 41.679688 C 247.585938 41.554688 247.519531 41.417969 247.558594 41.296875 C 247.859375 40.175781 247.777344 39.050781 247.628906 37.921875 C 247.597656 37.710938 247.515625 37.433594 247.605469 37.28125 C 247.878906 36.800781 247.660156 36.347656 247.671875 35.894531 C 247.679688 35.410156 247.742188 34.945312 247.632812 34.457031 C 247.566406 34.214844 247.554688 33.9375 247.597656 33.679688 C 247.699219 32.816406 247.683594 31.949219 247.648438 31.082031 C 247.625 29.90625 247.71875 28.730469 247.621094 27.550781 C 247.480469 25.988281 247.476562 24.414062 247.511719 22.855469 C 247.578125 19.585938 247.320312 16.324219 247.25 13.050781 C 247.238281 12.703125 247.28125 12.273438 247.113281 12.027344 C 246.710938 11.464844 246.808594 10.824219 246.621094 9.972656 C 246.449219 13.984375 246.007812 17.699219 246.101562 21.457031 C 246.152344 23.191406 245.976562 24.9375 245.890625 26.664062 C 245.859375 27.324219 245.742188 27.976562 245.761719 28.621094 C 245.78125 30.144531 245.925781 31.652344 245.632812 33.171875 C 245.574219 33.496094 245.582031 33.878906 245.644531 34.210938 C 245.722656 34.695312 245.675781 35.179688 245.582031 35.644531 C 245.449219 36.179688 245.921875 36.65625 245.636719 37.1875 C 245.738281 38.140625 245.421875 39.085938 245.679688 40.042969 C 245.667969 41.414062 245.257812 42.769531 245.507812 44.160156 C 245.273438 44.625 245.523438 45.113281 245.476562 45.5625 C 245.433594 46.066406 245.371094 46.566406 245.339844 47.085938 C 245.308594 47.792969 245.484375 48.457031 245.488281 49.148438 C 245.503906 50.117188 244.964844 51.058594 245.394531 52.054688 C 245.101562 52.6875 245.347656 53.335938 245.371094 53.976562 C 245.378906 54.324219 245.425781 54.722656 245.261719 54.996094 C 244.976562 55.492188 245.085938 55.976562 245.128906 56.480469 C 245.140625 56.65625 245.277344 56.847656 245.222656 56.984375 C 244.890625 57.808594 245.273438 58.597656 245.273438 59.410156 C 244.996094 60.289062 244.875 61.167969 245.183594 62.074219 C 245.273438 62.785156 245.015625 63.492188 245.140625 64.203125 C 245.171875 64.394531 245.042969 64.617188 244.988281 64.824219 C 244.949219 65.03125 244.859375 65.253906 244.886719 65.460938 C 244.996094 66.085938 244.777344 66.671875 244.78125 67.277344 C 244.785156 67.867188 244.859375 68.457031 244.796875 69.0625 C 244.730469 69.613281 244.617188 70.199219 244.65625 70.71875 C 244.695312 71.328125 244.597656 71.949219 244.671875 72.539062 C 244.789062 73.460938 244.804688 74.359375 244.664062 75.273438 C 244.542969 76.207031 244.832031 77.199219 244.292969 78.089844 C 244.328125 78.160156 244.34375 78.226562 244.359375 78.296875 C 244.410156 78.316406 244.445312 78.367188 244.460938 78.402344 C 244.511719 78.507812 244.507812 78.648438 244.503906 78.769531 C 244.503906 78.835938 244.449219 78.921875 244.398438 78.972656 C 244.257812 79.09375 244.222656 79.003906 244.191406 78.917969 C 244.15625 78.953125 244.136719 78.984375 244.101562 79.019531 C 244.050781 79.070312 244.132812 79.28125 244.199219 79.367188 C 244.351562 79.542969 244.433594 79.683594 244.394531 79.945312 C 244.332031 80.496094 244.371094 81.035156 244.222656 81.585938 C 244.015625 82.359375 244.222656 83.125 244.433594 83.890625 C 244.496094 84.117188 244.648438 84.3125 244.894531 84.265625 C 245.5 84.140625 245.347656 84.792969 245.65625 84.972656 C 245.972656 84.738281 246.222656 84.449219 246.617188 84.683594 Z M 246.1875 42.980469 C 246.226562 42.929688 246.277344 42.898438 246.3125 42.84375 C 246.277344 42.898438 246.226562 42.929688 246.1875 42.980469 Z M 246.078125 61.609375 C 246.042969 61.539062 246.011719 61.46875 245.976562 61.417969 C 246.011719 61.46875 246.042969 61.539062 246.078125 61.609375 Z M 246.1875 50.566406 C 246.199219 50.722656 246.199219 50.875 246.210938 51.050781 C 246.199219 50.859375 246.183594 50.71875 246.1875 50.566406 Z M 246.125 47.6875 C 246.160156 47.636719 246.214844 47.585938 246.230469 47.554688 C 246.214844 47.605469 246.160156 47.65625 246.125 47.6875 Z M 246.125 47.6875 " fill-opacity="1" fill-rule="nonzero"/></g></g></g><g clip-path="url(#e90a973fb3)"><g clip-path="url(#c30b983dcd)"><g clip-path="url(#19e1fff231)"><path fill="#4d429a" d="M 248.152344 71.730469 C 248.132812 71.832031 248.144531 71.953125 248.144531 72.074219 C 248.195312 72.074219 248.246094 72.078125 248.246094 72.058594 C 248.265625 71.9375 248.285156 71.835938 248.273438 71.714844 C 248.257812 71.609375 248.1875 71.609375 248.152344 71.730469 Z M 248.152344 71.730469 " fill-opacity="1" fill-rule="nonzero"/></g></g></g><g clip-path="url(#1e228e32da)"><g clip-path="url(#6d0f8f519e)"><g clip-path="url(#26f2a2701c)"><path fill="#4d429a" d="M 248.21875 73.410156 C 248.238281 73.375 248.238281 73.339844 248.257812 73.304688 C 248.257812 73.273438 248.238281 73.238281 248.242188 73.203125 C 248.222656 73.253906 248.1875 73.289062 248.1875 73.339844 C 248.167969 73.355469 248.203125 73.375 248.21875 73.410156 Z M 248.21875 73.410156 " fill-opacity="1" fill-rule="nonzero"/></g></g></g><g clip-path="url(#bc31ce1783)"><g clip-path="url(#6ba4016da1)"><g clip-path="url(#08e643d131)"><path fill="#4d429a" d="M 248.261719 70.621094 C 248.277344 70.589844 248.3125 70.554688 248.3125 70.539062 C 248.316406 70.46875 248.300781 70.382812 248.300781 70.3125 C 248.285156 70.3125 248.25 70.328125 248.25 70.328125 C 248.246094 70.433594 248.261719 70.519531 248.261719 70.621094 Z M 248.261719 70.621094 " fill-opacity="1" fill-rule="nonzero"/></g></g></g><g clip-path="url(#c747f38786)"><path fill="#4d429a" d="M 124.410156 8.007812 C 124.453125 7.941406 124.453125 7.851562 124.363281 7.734375 C 124.292969 7.667969 124.203125 7.621094 124.113281 7.574219 C 123.882812 7.484375 123.792969 7.667969 123.675781 7.757812 C 123.65625 7.78125 123.609375 7.804688 123.585938 7.804688 C 123.835938 8.007812 124.113281 8.078125 124.410156 8.007812 Z M 124.410156 8.007812 " fill-opacity="1" fill-rule="nonzero"/></g><g clip-path="url(#ed12029a9b)"><path fill="#4d429a" d="M 116.027344 11.136719 C 115.9375 11.320312 115.957031 11.503906 116.210938 11.414062 C 116.507812 11.320312 116.734375 11.433594 117.03125 11.527344 C 117.671875 11.753906 118.355469 12.050781 119.019531 12.050781 C 119.726562 12.050781 120.253906 12.417969 120.867188 12.53125 C 121.597656 12.667969 122.398438 12.738281 123.082031 12.554688 C 123.792969 12.371094 124.5 12.691406 125.09375 12.441406 C 125.847656 12.121094 126.601562 12.324219 127.308594 12.394531 C 127.972656 12.464844 128.609375 12.050781 129.296875 12.464844 C 129.5 12.601562 130.003906 12.167969 130.367188 12.121094 C 130.941406 12.050781 131.535156 12.007812 132.082031 12.121094 C 132.765625 12.28125 133.429688 12.234375 134.136719 12.1875 C 135.917969 12.097656 137.699219 12.050781 139.480469 12.027344 C 140.441406 12.007812 141.375 12.121094 142.335938 12.074219 C 144.527344 11.9375 146.722656 12.007812 148.890625 11.984375 C 150.808594 12.1875 152.726562 11.960938 154.644531 11.871094 C 155.992188 11.800781 157.339844 12.050781 158.664062 11.59375 C 159.121094 11.730469 159.554688 11.710938 160.035156 11.710938 C 162.203125 11.640625 164.398438 11.617188 166.566406 11.59375 C 167.480469 11.59375 168.394531 11.6875 169.285156 11.414062 C 169.832031 11.230469 170.402344 11.277344 170.972656 11.480469 C 171.589844 11.710938 172.207031 11.640625 172.777344 11.277344 C 172.9375 11.230469 173.121094 11.136719 173.28125 11.183594 C 174.765625 11.550781 176.25 11.414062 177.734375 11.183594 C 178.007812 11.136719 178.375 11.023438 178.578125 11.136719 C 179.21875 11.480469 179.8125 11.183594 180.40625 11.183594 C 181.046875 11.183594 181.664062 11.253906 182.300781 11.09375 C 182.621094 11 182.988281 10.980469 183.328125 11.023438 C 184.472656 11.136719 185.613281 11.09375 186.753906 11.023438 C 188.308594 10.957031 189.859375 11.046875 191.414062 10.886719 C 193.46875 10.660156 195.546875 10.613281 197.601562 10.613281 C 201.917969 10.613281 206.210938 10.179688 210.527344 9.996094 C 210.984375 9.972656 211.554688 10.019531 211.875 9.792969 C 212.605469 9.242188 213.453125 9.355469 214.570312 9.082031 C 209.273438 8.96875 204.363281 8.488281 199.40625 8.71875 C 197.125 8.832031 194.816406 8.648438 192.53125 8.582031 C 191.664062 8.558594 190.796875 8.421875 189.953125 8.464844 C 187.941406 8.535156 185.957031 8.761719 183.945312 8.421875 C 183.511719 8.351562 183.007812 8.375 182.574219 8.464844 C 181.9375 8.582031 181.296875 8.535156 180.679688 8.421875 C 179.972656 8.261719 179.355469 8.902344 178.648438 8.535156 C 177.390625 8.695312 176.136719 8.308594 174.878906 8.671875 C 173.074219 8.695312 171.269531 8.191406 169.445312 8.558594 C 168.828125 8.261719 168.1875 8.605469 167.59375 8.558594 C 166.933594 8.511719 166.269531 8.445312 165.585938 8.421875 C 164.648438 8.398438 163.78125 8.648438 162.867188 8.671875 C 161.589844 8.71875 160.332031 8.03125 159.03125 8.625 C 158.183594 8.261719 157.339844 8.605469 156.496094 8.648438 C 156.039062 8.671875 155.511719 8.742188 155.148438 8.535156 C 154.484375 8.167969 153.847656 8.328125 153.183594 8.398438 C 152.957031 8.421875 152.703125 8.605469 152.519531 8.535156 C 151.425781 8.125 150.398438 8.648438 149.324219 8.671875 C 148.160156 8.328125 146.996094 8.191406 145.808594 8.625 C 144.871094 8.761719 143.933594 8.445312 143 8.625 C 142.746094 8.671875 142.449219 8.511719 142.175781 8.445312 C 141.902344 8.398438 141.605469 8.285156 141.332031 8.328125 C 140.507812 8.488281 139.730469 8.214844 138.933594 8.238281 C 138.15625 8.261719 137.378906 8.375 136.582031 8.308594 C 135.851562 8.238281 135.074219 8.101562 134.386719 8.167969 C 133.589844 8.238281 132.765625 8.125 131.992188 8.238281 C 130.78125 8.421875 129.59375 8.464844 128.382812 8.304688 C 127.148438 8.167969 125.847656 8.582031 124.660156 7.894531 C 124.566406 7.941406 124.476562 7.964844 124.386719 7.988281 C 124.363281 8.054688 124.292969 8.101562 124.25 8.125 C 124.113281 8.191406 123.929688 8.191406 123.769531 8.191406 C 123.675781 8.191406 123.5625 8.125 123.496094 8.054688 C 123.335938 7.871094 123.449219 7.828125 123.5625 7.78125 C 123.519531 7.734375 123.472656 7.710938 123.425781 7.667969 C 123.359375 7.597656 123.082031 7.710938 122.96875 7.804688 C 122.742188 8.007812 122.558594 8.125 122.214844 8.078125 C 121.484375 8.007812 120.777344 8.078125 120.046875 7.894531 C 119.019531 7.644531 118.015625 7.941406 117.007812 8.238281 C 116.710938 8.328125 116.460938 8.535156 116.53125 8.855469 C 116.710938 9.652344 115.84375 9.472656 115.617188 9.882812 C 115.9375 10.292969 116.324219 10.613281 116.027344 11.136719 Z M 171.019531 9.425781 C 171.089844 9.472656 171.132812 9.539062 171.203125 9.585938 C 171.132812 9.539062 171.089844 9.472656 171.019531 9.425781 Z M 146.445312 9.792969 C 146.539062 9.746094 146.628906 9.699219 146.699219 9.652344 C 146.628906 9.699219 146.539062 9.746094 146.445312 9.792969 Z M 161.015625 9.632812 C 160.8125 9.652344 160.605469 9.652344 160.378906 9.675781 C 160.628906 9.652344 160.8125 9.632812 161.015625 9.632812 Z M 164.808594 9.472656 C 164.875 9.515625 164.945312 9.585938 164.992188 9.609375 C 164.921875 9.585938 164.855469 9.515625 164.808594 9.472656 Z M 164.808594 9.472656 " fill-opacity="1" fill-rule="nonzero"/></g><g clip-path="url(#bba33675d3)"><path fill="#4d429a" d="M 133.15625 12.804688 C 133.019531 12.78125 132.859375 12.804688 132.699219 12.804688 C 132.699219 12.875 132.699219 12.941406 132.722656 12.941406 C 132.882812 12.964844 133.019531 12.988281 133.179688 12.964844 C 133.316406 12.941406 133.316406 12.851562 133.15625 12.804688 Z M 133.15625 12.804688 " fill-opacity="1" fill-rule="nonzero"/></g><g clip-path="url(#fe47c39863)"><path fill="#4d429a" d="M 130.941406 12.941406 C 130.984375 12.964844 131.03125 12.964844 131.078125 12.988281 C 131.121094 12.988281 131.167969 12.964844 131.214844 12.964844 C 131.144531 12.941406 131.101562 12.898438 131.03125 12.898438 C 131.007812 12.875 130.984375 12.917969 130.941406 12.941406 Z M 130.941406 12.941406 " fill-opacity="1" fill-rule="nonzero"/></g><g clip-path="url(#9688abb067)"><path fill="#4d429a" d="M 134.617188 12.917969 C 134.664062 12.941406 134.707031 12.988281 134.730469 12.988281 C 134.824219 12.988281 134.9375 12.964844 135.027344 12.964844 C 135.027344 12.941406 135.003906 12.898438 135.003906 12.898438 C 134.867188 12.898438 134.753906 12.917969 134.617188 12.917969 Z M 134.617188 12.917969 " fill-opacity="1" fill-rule="nonzero"/></g><g clip-path="url(#2c5b41843c)"><g clip-path="url(#6b5fe9b926)"><g clip-path="url(#6078071fe2)"><path fill="#4d429a" d="M 124.539062 79.738281 C 124.585938 79.671875 124.589844 79.582031 124.5 79.464844 C 124.433594 79.394531 124.34375 79.347656 124.253906 79.296875 C 124.027344 79.203125 123.929688 79.382812 123.816406 79.472656 C 123.792969 79.492188 123.746094 79.515625 123.722656 79.515625 C 123.96875 79.726562 124.242188 79.800781 124.539062 79.738281 Z M 124.539062 79.738281 " fill-opacity="1" fill-rule="nonzero"/></g></g></g><g clip-path="url(#6693dee004)"><g clip-path="url(#5fe01e1b8c)"><g clip-path="url(#204843014d)"><path fill="#4d429a" d="M 116.089844 82.675781 C 115.992188 82.855469 116.011719 83.039062 116.265625 82.953125 C 116.566406 82.871094 116.789062 82.988281 117.085938 83.085938 C 117.71875 83.332031 118.398438 83.644531 119.058594 83.65625 C 119.765625 83.675781 120.285156 84.050781 120.898438 84.179688 C 121.625 84.332031 122.421875 84.417969 123.113281 84.253906 C 123.824219 84.085938 124.523438 84.421875 125.125 84.183594 C 125.882812 83.882812 126.632812 84.105469 127.339844 84.1875 C 128 84.273438 128.648438 83.875 129.324219 84.300781 C 129.527344 84.445312 130.039062 84.023438 130.40625 83.984375 C 130.976562 83.929688 131.570312 83.898438 132.117188 84.023438 C 132.800781 84.199219 133.460938 84.167969 134.171875 84.136719 C 135.953125 84.085938 137.734375 84.082031 139.515625 84.101562 C 140.476562 84.097656 141.410156 84.234375 142.371094 84.210938 C 144.566406 84.125 146.753906 84.242188 148.925781 84.269531 C 150.839844 84.515625 152.761719 84.332031 154.679688 84.285156 C 156.03125 84.246094 157.371094 84.527344 158.707031 84.101562 C 159.160156 84.25 159.59375 84.234375 160.074219 84.246094 C 162.242188 84.226562 164.4375 84.253906 166.605469 84.28125 C 167.519531 84.300781 168.429688 84.414062 169.328125 84.160156 C 169.878906 83.988281 170.449219 84.050781 171.015625 84.265625 C 171.625 84.507812 172.242188 84.457031 172.824219 84.101562 C 172.984375 84.0625 173.167969 83.972656 173.328125 84.023438 C 174.804688 84.421875 176.289062 84.320312 177.78125 84.125 C 178.054688 84.085938 178.421875 83.980469 178.625 84.097656 C 179.257812 84.453125 179.855469 84.171875 180.449219 84.183594 C 181.089844 84.199219 181.703125 84.28125 182.347656 84.136719 C 182.667969 84.050781 183.035156 84.039062 183.375 84.089844 C 184.515625 84.230469 185.660156 84.210938 186.800781 84.167969 C 188.355469 84.136719 189.90625 84.261719 191.460938 84.136719 C 193.523438 83.957031 195.601562 83.957031 197.65625 84.003906 C 201.972656 84.101562 206.273438 83.765625 210.59375 83.683594 C 211.050781 83.667969 211.621094 83.726562 211.945312 83.507812 C 212.6875 82.976562 213.53125 83.109375 214.65625 82.859375 C 209.359375 82.625 204.460938 82.035156 199.503906 82.152344 C 197.21875 82.210938 194.914062 81.976562 192.632812 81.859375 C 191.765625 81.816406 190.902344 81.65625 190.054688 81.683594 C 188.046875 81.707031 186.054688 81.890625 184.050781 81.503906 C 183.621094 81.425781 183.117188 81.4375 182.679688 81.515625 C 182.039062 81.617188 181.402344 81.554688 180.789062 81.429688 C 180.082031 81.253906 179.453125 81.878906 178.753906 81.496094 C 177.492188 81.628906 176.246094 81.210938 174.984375 81.546875 C 173.179688 81.53125 171.386719 80.984375 169.550781 81.308594 C 168.941406 81 168.292969 81.328125 167.703125 81.269531 C 167.039062 81.207031 166.378906 81.125 165.695312 81.085938 C 164.761719 81.042969 163.886719 81.273438 162.972656 81.273438 C 161.695312 81.292969 160.453125 80.578125 159.136719 81.140625 C 158.300781 80.757812 157.449219 81.082031 156.601562 81.105469 C 156.144531 81.121094 155.621094 81.175781 155.257812 80.960938 C 154.605469 80.582031 153.960938 80.726562 153.296875 80.78125 C 153.070312 80.796875 152.816406 80.976562 152.632812 80.902344 C 151.546875 80.46875 150.507812 80.96875 149.433594 80.96875 C 148.277344 80.597656 147.117188 80.433594 145.917969 80.839844 C 144.980469 80.957031 144.050781 80.617188 143.109375 80.777344 C 142.859375 80.816406 142.566406 80.652344 142.292969 80.578125 C 142.019531 80.523438 141.726562 80.402344 141.449219 80.441406 C 140.625 80.585938 139.855469 80.292969 139.054688 80.296875 C 138.277344 80.300781 137.5 80.398438 136.703125 80.3125 C 135.972656 80.226562 135.199219 80.074219 134.511719 80.125 C 133.710938 80.175781 132.894531 80.042969 132.113281 80.140625 C 130.898438 80.292969 129.710938 80.3125 128.503906 80.125 C 127.277344 79.960938 125.964844 80.34375 124.792969 79.628906 C 124.699219 79.675781 124.609375 79.695312 124.515625 79.714844 C 124.492188 79.785156 124.421875 79.828125 124.378906 79.851562 C 124.238281 79.914062 124.054688 79.910156 123.894531 79.90625 C 123.804688 79.90625 123.691406 79.835938 123.625 79.765625 C 123.46875 79.578125 123.585938 79.535156 123.699219 79.492188 C 123.65625 79.445312 123.609375 79.421875 123.566406 79.375 C 123.5 79.304688 123.222656 79.414062 123.105469 79.5 C 122.871094 79.703125 122.6875 79.8125 122.347656 79.757812 C 121.617188 79.671875 120.90625 79.726562 120.179688 79.527344 C 119.160156 79.25 118.148438 79.523438 117.136719 79.800781 C 116.839844 79.882812 116.582031 80.082031 116.644531 80.40625 C 116.808594 81.207031 115.945312 81.003906 115.707031 81.410156 C 116.015625 81.828125 116.398438 82.160156 116.089844 82.675781 Z M 171.105469 82.214844 C 171.175781 82.261719 171.21875 82.332031 171.285156 82.378906 C 171.21875 82.332031 171.175781 82.261719 171.105469 82.214844 Z M 146.53125 82.019531 C 146.625 81.976562 146.714844 81.933594 146.785156 81.890625 C 146.714844 81.933594 146.625 81.976562 146.53125 82.019531 Z M 161.101562 82.191406 C 160.894531 82.210938 160.691406 82.207031 160.460938 82.222656 C 160.714844 82.207031 160.894531 82.1875 161.101562 82.191406 Z M 164.894531 82.117188 C 164.964844 82.164062 165.03125 82.234375 165.074219 82.257812 C 165.007812 82.234375 164.941406 82.164062 164.894531 82.117188 Z M 164.894531 82.117188 " fill-opacity="1" fill-rule="nonzero"/></g></g></g><g clip-path="url(#5b733d0ef3)"><g clip-path="url(#6ef1931e03)"><g clip-path="url(#0868bc61c5)"><path fill="#4d429a" d="M 133.175781 84.734375 C 133.039062 84.707031 132.878906 84.726562 132.71875 84.722656 C 132.71875 84.789062 132.714844 84.859375 132.738281 84.859375 C 132.898438 84.886719 133.035156 84.910156 133.195312 84.894531 C 133.332031 84.875 133.332031 84.78125 133.175781 84.734375 Z M 133.175781 84.734375 " fill-opacity="1" fill-rule="nonzero"/></g></g></g><g clip-path="url(#f84f443074)"><g clip-path="url(#d09b018842)"><g clip-path="url(#008f5ef381)"><path fill="#4d429a" d="M 130.957031 84.820312 C 131.003906 84.84375 131.046875 84.84375 131.09375 84.867188 C 131.140625 84.867188 131.183594 84.847656 131.230469 84.847656 C 131.164062 84.824219 131.117188 84.777344 131.050781 84.777344 C 131.027344 84.753906 131.003906 84.796875 130.957031 84.820312 Z M 130.957031 84.820312 " fill-opacity="1" fill-rule="nonzero"/></g></g></g><g clip-path="url(#1187f0c232)"><g clip-path="url(#f81883f409)"><g clip-path="url(#9a983ad5e8)"><path fill="#4d429a" d="M 134.632812 84.878906 C 134.679688 84.902344 134.722656 84.949219 134.746094 84.949219 C 134.835938 84.953125 134.953125 84.933594 135.042969 84.933594 C 135.042969 84.910156 135.023438 84.867188 135.023438 84.867188 C 134.886719 84.863281 134.769531 84.882812 134.632812 84.878906 Z M 134.632812 84.878906 " fill-opacity="1" fill-rule="nonzero"/></g></g></g><g clip-path="url(#31637c51f1)"><g clip-path="url(#8fab6d91fb)"><g clip-path="url(#0db6a7dee7)"><path fill="#4d429a" d="M 116.34375 11.832031 C 116.3125 11.914062 116.300781 12.019531 116.289062 12.125 C 116.28125 12.117188 116.273438 12.117188 116.261719 12.117188 C 116.257812 12.175781 116.277344 12.203125 116.273438 12.269531 C 116.257812 12.246094 116.25 12.265625 116.253906 12.296875 C 116.238281 12.277344 116.25 12.21875 116.265625 12.222656 C 116.265625 12.210938 116.253906 12.210938 116.253906 12.222656 C 116.265625 12.066406 116.246094 11.90625 116.277344 11.773438 C 116.21875 11.851562 116.214844 12.101562 116.179688 12.21875 C 116.164062 12.210938 116.175781 12.160156 116.191406 12.171875 C 116.1875 12.160156 116.1875 12.136719 116.175781 12.132812 C 116.199219 12.03125 116.210938 11.914062 116.207031 11.8125 C 116.253906 11.695312 116.277344 11.539062 116.355469 11.472656 C 116.40625 11.46875 116.433594 11.484375 116.476562 11.476562 C 116.527344 11.507812 116.578125 11.542969 116.609375 11.601562 C 116.660156 11.5625 116.699219 11.539062 116.753906 11.539062 C 116.761719 11.550781 116.773438 11.609375 116.785156 11.566406 C 116.792969 11.585938 116.796875 11.605469 116.808594 11.625 C 116.824219 11.621094 116.832031 11.570312 116.847656 11.597656 C 116.851562 11.628906 116.835938 11.632812 116.839844 11.664062 C 116.875 11.65625 116.890625 11.585938 116.941406 11.570312 C 117 11.546875 117.066406 11.59375 117.136719 11.59375 C 117.136719 11.6875 117.230469 11.65625 117.214844 11.785156 C 117.257812 11.6875 117.304688 11.546875 117.308594 11.425781 C 117.335938 11.402344 117.402344 11.375 117.421875 11.425781 C 117.433594 11.417969 117.445312 11.402344 117.453125 11.390625 C 117.46875 11.410156 117.453125 11.488281 117.484375 11.457031 C 117.496094 11.550781 117.472656 11.675781 117.519531 11.742188 C 117.539062 11.742188 117.53125 11.707031 117.539062 11.695312 C 117.558594 11.691406 117.578125 11.714844 117.589844 11.707031 C 117.605469 11.652344 117.613281 11.679688 117.617188 11.628906 C 117.632812 11.644531 117.648438 11.660156 117.648438 11.699219 C 117.664062 11.667969 117.664062 11.617188 117.691406 11.605469 C 117.71875 11.714844 117.699219 11.757812 117.699219 11.878906 C 117.734375 11.707031 117.785156 11.554688 117.839844 11.417969 C 117.867188 11.414062 117.894531 11.414062 117.890625 11.4375 C 117.910156 11.417969 117.894531 11.40625 117.882812 11.390625 C 117.9375 11.378906 117.96875 11.375 118.003906 11.324219 C 118.046875 11.34375 118.027344 11.410156 118.039062 11.46875 C 118.066406 11.460938 118.09375 11.449219 118.101562 11.402344 C 118.15625 11.433594 118.144531 11.597656 118.164062 11.652344 C 118.203125 11.628906 118.171875 11.570312 118.167969 11.519531 C 118.191406 11.53125 118.1875 11.5 118.203125 11.5 C 118.207031 11.667969 118.257812 11.6875 118.234375 11.863281 C 118.398438 11.871094 118.476562 12 118.597656 12.070312 C 118.582031 12.152344 118.605469 12.1875 118.632812 12.230469 C 118.648438 12.234375 118.628906 12.179688 118.644531 12.183594 C 118.664062 12.257812 118.660156 12.363281 118.664062 12.46875 C 118.667969 12.570312 118.667969 12.652344 118.640625 12.714844 C 118.6875 13.207031 118.628906 13.589844 118.644531 14.101562 C 118.625 14.109375 118.636719 14.070312 118.621094 14.074219 C 118.613281 14.230469 118.652344 14.511719 118.613281 14.664062 C 118.617188 14.695312 118.59375 14.675781 118.585938 14.691406 C 118.589844 14.8125 118.625 14.921875 118.582031 14.996094 C 118.566406 15.164062 118.613281 15.355469 118.570312 15.480469 C 118.566406 15.980469 118.578125 16.382812 118.519531 16.800781 C 118.5 17.039062 118.511719 17.234375 118.492188 17.472656 C 118.464844 17.4375 118.464844 17.359375 118.460938 17.292969 C 118.449219 17.378906 118.441406 17.523438 118.445312 17.644531 C 118.464844 18.046875 118.445312 18.464844 118.414062 18.878906 C 118.402344 18.894531 118.410156 18.875 118.398438 18.867188 C 118.375 18.949219 118.398438 19.035156 118.40625 19.105469 C 118.390625 19.121094 118.390625 19.105469 118.375 19.105469 C 118.363281 19.1875 118.390625 19.164062 118.394531 19.210938 C 118.402344 19.253906 118.378906 19.195312 118.375 19.226562 C 118.375 19.25 118.386719 19.246094 118.394531 19.246094 C 118.382812 19.355469 118.375 19.441406 118.382812 19.570312 C 118.382812 19.609375 118.367188 19.5625 118.355469 19.589844 C 118.351562 19.75 118.378906 19.976562 118.359375 20.148438 C 118.347656 20.230469 118.355469 20.285156 118.355469 20.378906 C 118.351562 20.457031 118.316406 20.535156 118.304688 20.625 C 118.296875 20.695312 118.316406 20.808594 118.300781 20.917969 C 118.289062 20.914062 118.296875 20.890625 118.289062 20.890625 C 118.289062 21.210938 118.28125 21.609375 118.304688 21.914062 C 118.269531 22.285156 118.316406 22.710938 118.304688 23.046875 C 118.296875 23.039062 118.292969 23.023438 118.292969 23 C 118.261719 23.324219 118.242188 23.824219 118.242188 24.242188 C 118.246094 24.28125 118.273438 24.285156 118.265625 24.335938 C 118.300781 24.363281 118.300781 24.441406 118.3125 24.492188 C 118.316406 24.5 118.332031 24.527344 118.332031 24.539062 C 118.332031 24.691406 118.21875 24.640625 118.160156 24.726562 C 118.175781 24.769531 118.183594 24.816406 118.15625 24.859375 C 118.117188 24.855469 118.121094 24.785156 118.097656 24.761719 C 118.085938 24.773438 118.074219 24.8125 118.09375 24.820312 C 118.082031 24.839844 118.0625 24.839844 118.050781 24.816406 C 118.046875 24.851562 118.074219 24.839844 118.070312 24.875 C 118.054688 24.878906 118.050781 24.867188 118.042969 24.863281 C 118.039062 24.894531 118.054688 24.894531 118.042969 24.914062 C 118.003906 24.914062 117.96875 24.90625 117.957031 24.871094 C 117.910156 25.0625 117.808594 25.214844 117.722656 25.371094 C 117.683594 25.367188 117.675781 25.316406 117.636719 25.3125 C 117.617188 25.195312 117.609375 25.121094 117.605469 24.980469 C 117.59375 24.957031 117.570312 24.996094 117.558594 24.96875 C 117.5625 24.929688 117.5625 24.875 117.535156 24.84375 C 117.523438 24.878906 117.53125 24.898438 117.519531 24.941406 C 117.503906 24.933594 117.503906 24.90625 117.488281 24.902344 C 117.453125 24.960938 117.398438 24.863281 117.359375 24.898438 C 117.34375 24.882812 117.371094 24.84375 117.367188 24.8125 C 117.347656 24.863281 117.355469 24.761719 117.34375 24.746094 C 117.332031 24.75 117.355469 24.824219 117.328125 24.804688 C 117.335938 24.898438 117.324219 24.871094 117.328125 24.945312 C 117.234375 24.929688 117.199219 24.785156 117.160156 24.628906 C 117.140625 24.648438 117.101562 24.683594 117.078125 24.664062 C 117.066406 24.675781 117.085938 24.71875 117.089844 24.742188 C 117.070312 24.742188 117.066406 24.714844 117.050781 24.710938 C 117.035156 24.734375 117.0625 24.730469 117.058594 24.757812 C 117.019531 24.730469 117.035156 24.679688 117.015625 24.636719 C 116.992188 24.675781 117.011719 24.722656 117.011719 24.777344 C 117.003906 24.773438 117.007812 24.746094 116.988281 24.757812 C 116.988281 24.785156 117.007812 24.777344 117 24.816406 C 116.980469 24.820312 116.984375 24.785156 116.960938 24.796875 C 116.96875 24.84375 116.972656 24.90625 116.964844 24.949219 C 116.941406 24.945312 116.941406 24.914062 116.929688 24.898438 C 116.917969 24.929688 116.933594 24.953125 116.933594 24.996094 C 116.90625 24.996094 116.878906 24.996094 116.871094 24.925781 C 116.859375 24.929688 116.847656 24.925781 116.84375 24.917969 C 116.824219 24.957031 116.832031 24.972656 116.828125 25.058594 C 116.796875 25.074219 116.777344 25.019531 116.757812 25.027344 C 116.710938 25.054688 116.71875 25.105469 116.71875 25.179688 C 116.695312 25.148438 116.675781 25.164062 116.65625 25.132812 C 116.636719 25.179688 116.613281 25.144531 116.574219 25.140625 C 116.574219 25.121094 116.585938 25.121094 116.582031 25.101562 C 116.515625 25.078125 116.546875 24.914062 116.480469 24.890625 C 116.46875 24.933594 116.410156 24.90625 116.394531 24.945312 C 116.3125 24.890625 116.164062 24.933594 116.167969 24.761719 C 116.140625 24.769531 116.125 24.800781 116.128906 24.855469 C 116.097656 24.84375 116.09375 24.875 116.09375 24.910156 C 116.0625 24.894531 116.0625 24.890625 116.046875 24.929688 C 115.992188 24.882812 115.9375 24.894531 115.859375 24.847656 C 115.890625 24.457031 115.90625 23.914062 115.9375 23.566406 C 115.9375 23.558594 115.929688 23.558594 115.921875 23.558594 C 115.960938 23.484375 115.941406 23.367188 115.921875 23.292969 C 115.925781 23.296875 115.933594 23.300781 115.941406 23.300781 C 115.945312 23.261719 115.933594 23.25 115.9375 23.207031 C 115.953125 23.125 115.921875 22.820312 115.925781 22.628906 C 115.925781 22.414062 115.902344 22.191406 115.878906 22.085938 C 115.933594 22.050781 115.914062 21.941406 115.914062 21.828125 C 115.914062 21.800781 115.9375 21.8125 115.941406 21.792969 C 115.914062 21.734375 115.960938 21.566406 115.929688 21.496094 C 115.914062 21.492188 115.90625 21.5 115.910156 21.523438 C 115.890625 21.457031 115.914062 21.375 115.902344 21.296875 C 115.894531 21.300781 115.894531 21.316406 115.882812 21.316406 C 115.894531 21.1875 115.917969 21.046875 115.953125 20.964844 C 115.941406 20.917969 115.960938 20.890625 115.964844 20.851562 C 115.984375 20.738281 115.960938 20.566406 115.960938 20.433594 C 115.96875 20.019531 116.015625 19.613281 116 19.226562 C 116.003906 19.222656 116.007812 19.207031 116.019531 19.207031 C 116.023438 18.90625 116.007812 18.667969 116.015625 18.371094 C 116 18.371094 116 18.390625 115.996094 18.410156 C 115.992188 18.335938 116.019531 18.265625 116.03125 18.203125 C 115.992188 18.136719 116.042969 18.085938 116.042969 17.992188 C 116.058594 17.988281 116.050781 18.011719 116.0625 18.011719 C 116.089844 17.703125 116.003906 17.425781 116.0625 17.109375 C 116.050781 17.097656 116.046875 17.078125 116.042969 17.050781 C 116.082031 17.0625 116.070312 17.148438 116.085938 17.195312 C 116.089844 17.050781 116.074219 16.875 116.113281 16.703125 C 116.054688 16.640625 116.097656 16.46875 116.082031 16.332031 C 116.09375 16.328125 116.09375 16.339844 116.101562 16.339844 C 116.101562 16.296875 116.113281 16.269531 116.117188 16.226562 C 116.09375 16.226562 116.097656 16.261719 116.097656 16.292969 C 116.066406 16.21875 116.125 16.113281 116.0625 16.074219 C 116.074219 16.023438 116.074219 15.988281 116.054688 15.960938 C 116.0625 15.957031 116.0625 15.96875 116.070312 15.96875 C 116.113281 15.707031 116.117188 15.410156 116.128906 15.070312 C 116.105469 15.074219 116.117188 15.132812 116.101562 15.152344 C 116.078125 14.832031 116.179688 14.46875 116.121094 14.136719 C 116.101562 14.183594 116.101562 14.289062 116.09375 14.328125 C 116.089844 14.347656 116.101562 14.390625 116.085938 14.394531 C 116.089844 14.285156 116.074219 14.246094 116.078125 14.15625 C 116.070312 14.140625 116.058594 14.136719 116.058594 14.109375 C 116.074219 14.128906 116.078125 14.101562 116.097656 14.109375 C 116.105469 14.066406 116.089844 14.054688 116.085938 14.03125 C 116.117188 13.980469 116.105469 13.933594 116.089844 13.871094 C 116.160156 13.542969 116.117188 13.121094 116.148438 12.75 C 116.179688 12.839844 116.144531 12.972656 116.179688 13.054688 C 116.199219 13.039062 116.175781 12.960938 116.214844 12.980469 C 116.21875 12.941406 116.195312 12.941406 116.195312 12.902344 C 116.207031 12.890625 116.21875 12.890625 116.226562 12.90625 C 116.214844 12.828125 116.222656 12.683594 116.257812 12.589844 C 116.257812 12.621094 116.257812 12.648438 116.257812 12.675781 C 116.277344 12.480469 116.324219 12.175781 116.324219 11.945312 C 116.355469 11.925781 116.324219 11.90625 116.34375 11.832031 Z M 116.046875 18.660156 C 116.046875 18.609375 116.054688 18.5625 116.074219 18.601562 C 116.078125 18.5625 116.0625 18.554688 116.058594 18.527344 C 116.054688 18.566406 116.042969 18.546875 116.03125 18.535156 C 116.054688 18.570312 116.007812 18.652344 116.046875 18.660156 Z M 116.136719 14.042969 C 116.132812 14.054688 116.125 14.0625 116.140625 14.0625 C 116.140625 14.011719 116.136719 13.964844 116.144531 13.9375 C 116.117188 13.941406 116.121094 14.019531 116.136719 14.042969 Z M 116.21875 16.667969 C 116.242188 16.675781 116.234375 16.613281 116.21875 16.617188 C 116.21875 16.644531 116.207031 16.648438 116.21875 16.667969 Z M 116.234375 16.601562 C 116.230469 16.570312 116.242188 16.511719 116.230469 16.496094 C 116.226562 16.546875 116.207031 16.566406 116.234375 16.601562 Z M 116.492188 18.019531 C 116.511719 17.996094 116.488281 17.941406 116.511719 17.9375 C 116.511719 17.90625 116.492188 17.886719 116.507812 17.871094 C 116.5 17.871094 116.488281 17.867188 116.480469 17.867188 C 116.488281 17.917969 116.480469 17.980469 116.492188 18.019531 Z M 116.917969 13.582031 C 116.910156 13.554688 116.914062 13.515625 116.894531 13.507812 C 116.894531 13.542969 116.886719 13.589844 116.917969 13.582031 Z M 116.964844 13.375 C 116.957031 13.242188 116.945312 13.433594 116.964844 13.453125 C 116.964844 13.417969 116.964844 13.394531 116.964844 13.375 Z M 117.132812 21.996094 C 117.136719 21.988281 117.140625 21.9375 117.121094 21.9375 C 117.121094 21.964844 117.117188 21.996094 117.132812 21.996094 Z M 117.550781 19.171875 C 117.527344 19.160156 117.523438 19.230469 117.535156 19.238281 C 117.53125 19.203125 117.558594 19.214844 117.550781 19.171875 Z M 117.554688 19.023438 C 117.566406 18.9375 117.558594 18.867188 117.566406 18.765625 C 117.554688 18.816406 117.53125 18.96875 117.554688 19.023438 Z M 117.570312 18.527344 C 117.570312 18.542969 117.570312 18.5625 117.558594 18.554688 C 117.570312 18.613281 117.550781 18.699219 117.554688 18.746094 C 117.578125 18.640625 117.582031 18.59375 117.570312 18.527344 Z M 117.574219 19.527344 C 117.582031 19.589844 117.554688 19.679688 117.578125 19.707031 C 117.597656 19.59375 117.609375 19.347656 117.585938 19.222656 C 117.578125 19.320312 117.5625 19.382812 117.570312 19.476562 C 117.59375 19.40625 117.558594 19.542969 117.5625 19.542969 C 117.5625 19.535156 117.570312 19.53125 117.574219 19.527344 Z M 117.597656 18.460938 C 117.597656 18.441406 117.597656 18.417969 117.597656 18.394531 C 117.574219 18.390625 117.585938 18.460938 117.597656 18.460938 Z M 117.585938 19.191406 C 117.585938 19.199219 117.589844 19.203125 117.59375 19.203125 C 117.597656 19.160156 117.59375 19.03125 117.589844 19.136719 C 117.574219 19.15625 117.59375 19.167969 117.582031 19.183594 C 117.578125 19.183594 117.574219 19.183594 117.574219 19.191406 C 117.578125 19.191406 117.582031 19.191406 117.585938 19.191406 Z M 117.613281 19.734375 C 117.625 19.746094 117.628906 19.769531 117.636719 19.785156 C 117.652344 19.578125 117.65625 19.222656 117.652344 18.984375 C 117.613281 19.195312 117.640625 19.488281 117.613281 19.734375 Z M 118.050781 12.921875 C 118.09375 12.824219 118.113281 12.683594 118.109375 12.5625 C 118.097656 12.6875 118.035156 12.820312 118.050781 12.921875 Z M 118.105469 13.339844 C 118.125 13.3125 118.121094 13.230469 118.109375 13.199219 C 118.121094 13.203125 118.132812 13.199219 118.132812 13.179688 C 118.121094 13.164062 118.121094 13.1875 118.109375 13.171875 C 118.082031 13.222656 118.09375 13.277344 118.105469 13.339844 Z M 118.109375 13.511719 C 118.105469 13.472656 118.121094 13.460938 118.117188 13.417969 C 118.085938 13.421875 118.09375 13.511719 118.109375 13.511719 Z M 118.179688 12.6875 C 118.1875 12.65625 118.1875 12.628906 118.1875 12.574219 C 118.160156 12.574219 118.175781 12.65625 118.179688 12.6875 Z M 118.230469 21.152344 C 118.242188 21.179688 118.21875 21.246094 118.234375 21.277344 C 118.253906 21.257812 118.253906 21.167969 118.230469 21.152344 Z M 118.378906 17.023438 C 118.382812 17.058594 118.363281 17.078125 118.378906 17.101562 C 118.40625 17.066406 118.398438 16.984375 118.398438 16.921875 C 118.398438 16.8125 118.386719 16.710938 118.398438 16.605469 C 118.363281 16.707031 118.375 16.945312 118.378906 17.023438 Z M 118.394531 16.453125 C 118.40625 16.414062 118.402344 16.316406 118.386719 16.253906 C 118.394531 16.324219 118.359375 16.445312 118.394531 16.453125 Z M 118.394531 15.875 C 118.421875 15.878906 118.390625 15.96875 118.417969 15.96875 C 118.429688 15.921875 118.421875 15.890625 118.414062 15.847656 C 118.429688 15.84375 118.4375 15.839844 118.453125 15.820312 C 118.402344 15.621094 118.496094 15.429688 118.445312 15.238281 C 118.414062 15.449219 118.4375 15.667969 118.394531 15.875 Z M 118.386719 17.621094 C 118.382812 17.671875 118.355469 17.730469 118.394531 17.757812 C 118.410156 17.585938 118.410156 17.414062 118.378906 17.242188 C 118.375 17.367188 118.386719 17.503906 118.386719 17.621094 Z M 118.386719 17.621094 " fill-opacity="1" fill-rule="evenodd"/></g></g></g><g clip-path="url(#03b6d74e69)"><g clip-path="url(#3c7fbb5b3e)"><g clip-path="url(#6d369a4f40)"><path fill="#4d429a" d="M 117.457031 67.789062 C 117.425781 67.867188 117.410156 67.976562 117.398438 68.082031 C 117.394531 68.074219 117.386719 68.074219 117.375 68.074219 C 117.371094 68.132812 117.390625 68.160156 117.382812 68.226562 C 117.371094 68.203125 117.359375 68.222656 117.363281 68.253906 C 117.351562 68.234375 117.359375 68.175781 117.378906 68.179688 C 117.378906 68.164062 117.367188 68.167969 117.367188 68.175781 C 117.378906 68.023438 117.359375 67.863281 117.386719 67.730469 C 117.332031 67.808594 117.328125 68.058594 117.292969 68.175781 C 117.277344 68.167969 117.289062 68.117188 117.304688 68.128906 C 117.300781 68.117188 117.300781 68.09375 117.289062 68.089844 C 117.3125 67.988281 117.320312 67.871094 117.320312 67.769531 C 117.367188 67.652344 117.390625 67.492188 117.46875 67.429688 C 117.519531 67.425781 117.546875 67.441406 117.585938 67.429688 C 117.640625 67.464844 117.6875 67.496094 117.722656 67.558594 C 117.773438 67.519531 117.8125 67.496094 117.867188 67.492188 C 117.875 67.507812 117.886719 67.566406 117.898438 67.523438 C 117.902344 67.542969 117.910156 67.5625 117.921875 67.582031 C 117.9375 67.578125 117.941406 67.527344 117.957031 67.554688 C 117.960938 67.585938 117.949219 67.589844 117.949219 67.621094 C 117.988281 67.613281 118.003906 67.542969 118.050781 67.527344 C 118.109375 67.503906 118.179688 67.550781 118.25 67.550781 C 118.25 67.640625 118.339844 67.613281 118.328125 67.742188 C 118.371094 67.644531 118.414062 67.503906 118.421875 67.382812 C 118.449219 67.359375 118.515625 67.332031 118.535156 67.382812 C 118.546875 67.375 118.554688 67.359375 118.566406 67.347656 C 118.582031 67.367188 118.5625 67.445312 118.597656 67.414062 C 118.609375 67.507812 118.582031 67.632812 118.632812 67.699219 C 118.648438 67.699219 118.644531 67.664062 118.652344 67.652344 C 118.667969 67.648438 118.6875 67.671875 118.703125 67.664062 C 118.71875 67.609375 118.726562 67.636719 118.730469 67.585938 C 118.746094 67.601562 118.757812 67.617188 118.757812 67.65625 C 118.777344 67.625 118.777344 67.574219 118.804688 67.5625 C 118.832031 67.667969 118.808594 67.714844 118.8125 67.835938 C 118.847656 67.664062 118.894531 67.511719 118.953125 67.375 C 118.980469 67.371094 119.007812 67.371094 119 67.394531 C 119.019531 67.375 119.007812 67.363281 118.996094 67.347656 C 119.050781 67.335938 119.082031 67.332031 119.117188 67.28125 C 119.160156 67.300781 119.140625 67.367188 119.148438 67.425781 C 119.179688 67.417969 119.207031 67.40625 119.214844 67.359375 C 119.269531 67.390625 119.257812 67.550781 119.277344 67.609375 C 119.316406 67.585938 119.285156 67.527344 119.28125 67.476562 C 119.304688 67.488281 119.300781 67.457031 119.316406 67.457031 C 119.320312 67.625 119.371094 67.644531 119.347656 67.820312 C 119.507812 67.828125 119.589844 67.953125 119.710938 68.027344 C 119.691406 68.109375 119.71875 68.144531 119.746094 68.1875 C 119.761719 68.191406 119.742188 68.136719 119.757812 68.140625 C 119.777344 68.214844 119.769531 68.320312 119.777344 68.425781 C 119.78125 68.527344 119.78125 68.609375 119.753906 68.671875 C 119.800781 69.164062 119.742188 69.542969 119.753906 70.058594 C 119.734375 70.066406 119.746094 70.027344 119.730469 70.03125 C 119.726562 70.1875 119.765625 70.46875 119.726562 70.621094 C 119.730469 70.652344 119.707031 70.632812 119.699219 70.648438 C 119.699219 70.769531 119.738281 70.878906 119.695312 70.953125 C 119.679688 71.121094 119.726562 71.3125 119.683594 71.4375 C 119.679688 71.933594 119.691406 72.339844 119.632812 72.753906 C 119.613281 72.992188 119.625 73.1875 119.605469 73.429688 C 119.578125 73.394531 119.578125 73.316406 119.574219 73.25 C 119.558594 73.335938 119.554688 73.480469 119.558594 73.601562 C 119.578125 74.003906 119.554688 74.421875 119.527344 74.835938 C 119.511719 74.851562 119.519531 74.832031 119.507812 74.824219 C 119.488281 74.90625 119.511719 74.992188 119.515625 75.0625 C 119.503906 75.078125 119.5 75.0625 119.484375 75.0625 C 119.476562 75.140625 119.503906 75.121094 119.507812 75.167969 C 119.511719 75.210938 119.492188 75.152344 119.488281 75.183594 C 119.484375 75.207031 119.496094 75.203125 119.507812 75.203125 C 119.496094 75.3125 119.488281 75.398438 119.496094 75.527344 C 119.496094 75.566406 119.480469 75.519531 119.46875 75.546875 C 119.464844 75.707031 119.492188 75.933594 119.46875 76.105469 C 119.460938 76.1875 119.46875 76.242188 119.464844 76.335938 C 119.464844 76.414062 119.429688 76.492188 119.417969 76.582031 C 119.40625 76.652344 119.429688 76.765625 119.410156 76.875 C 119.402344 76.871094 119.410156 76.847656 119.398438 76.847656 C 119.402344 77.167969 119.390625 77.566406 119.414062 77.871094 C 119.382812 78.242188 119.429688 78.667969 119.417969 79.003906 C 119.410156 78.996094 119.40625 78.980469 119.40625 78.957031 C 119.371094 79.28125 119.355469 79.78125 119.355469 80.199219 C 119.359375 80.238281 119.386719 80.238281 119.378906 80.292969 C 119.414062 80.320312 119.414062 80.398438 119.425781 80.445312 C 119.425781 80.457031 119.445312 80.484375 119.445312 80.496094 C 119.445312 80.648438 119.332031 80.597656 119.273438 80.683594 C 119.289062 80.726562 119.292969 80.773438 119.269531 80.816406 C 119.230469 80.808594 119.234375 80.742188 119.207031 80.71875 C 119.199219 80.730469 119.1875 80.769531 119.207031 80.773438 C 119.195312 80.796875 119.175781 80.796875 119.164062 80.773438 C 119.160156 80.808594 119.183594 80.796875 119.179688 80.832031 C 119.167969 80.835938 119.164062 80.824219 119.15625 80.820312 C 119.152344 80.851562 119.167969 80.851562 119.15625 80.871094 C 119.117188 80.871094 119.082031 80.863281 119.070312 80.828125 C 119.023438 81.019531 118.917969 81.171875 118.835938 81.328125 C 118.796875 81.324219 118.789062 81.273438 118.75 81.269531 C 118.730469 81.152344 118.71875 81.078125 118.71875 80.9375 C 118.707031 80.914062 118.683594 80.953125 118.667969 80.925781 C 118.675781 80.886719 118.675781 80.832031 118.648438 80.800781 C 118.636719 80.835938 118.644531 80.855469 118.632812 80.898438 C 118.617188 80.890625 118.617188 80.863281 118.601562 80.859375 C 118.566406 80.917969 118.511719 80.820312 118.472656 80.855469 C 118.457031 80.839844 118.484375 80.800781 118.480469 80.769531 C 118.457031 80.820312 118.46875 80.71875 118.457031 80.703125 C 118.441406 80.707031 118.46875 80.78125 118.441406 80.757812 C 118.449219 80.855469 118.4375 80.828125 118.4375 80.902344 C 118.34375 80.886719 118.3125 80.742188 118.273438 80.585938 C 118.253906 80.605469 118.214844 80.640625 118.191406 80.621094 C 118.175781 80.632812 118.199219 80.675781 118.199219 80.699219 C 118.183594 80.695312 118.179688 80.671875 118.164062 80.667969 C 118.148438 80.691406 118.171875 80.6875 118.167969 80.714844 C 118.132812 80.6875 118.148438 80.636719 118.128906 80.589844 C 118.101562 80.632812 118.125 80.679688 118.125 80.734375 C 118.117188 80.730469 118.121094 80.703125 118.101562 80.714844 C 118.097656 80.742188 118.121094 80.734375 118.113281 80.773438 C 118.09375 80.777344 118.097656 80.742188 118.074219 80.753906 C 118.082031 80.800781 118.085938 80.859375 118.078125 80.902344 C 118.054688 80.902344 118.054688 80.871094 118.042969 80.855469 C 118.03125 80.886719 118.046875 80.910156 118.046875 80.949219 C 118.019531 80.953125 117.988281 80.953125 117.984375 80.882812 C 117.972656 80.886719 117.960938 80.882812 117.953125 80.875 C 117.9375 80.914062 117.945312 80.929688 117.9375 81.015625 C 117.910156 81.03125 117.890625 80.976562 117.871094 80.984375 C 117.824219 81.011719 117.832031 81.0625 117.832031 81.136719 C 117.804688 81.105469 117.789062 81.121094 117.769531 81.089844 C 117.75 81.136719 117.726562 81.097656 117.6875 81.097656 C 117.6875 81.078125 117.695312 81.078125 117.695312 81.058594 C 117.628906 81.035156 117.660156 80.871094 117.59375 80.847656 C 117.582031 80.890625 117.519531 80.863281 117.503906 80.902344 C 117.425781 80.847656 117.277344 80.890625 117.277344 80.71875 C 117.253906 80.726562 117.238281 80.757812 117.238281 80.8125 C 117.210938 80.800781 117.207031 80.832031 117.207031 80.867188 C 117.175781 80.851562 117.175781 80.847656 117.15625 80.886719 C 117.105469 80.839844 117.046875 80.851562 116.972656 80.804688 C 117.003906 80.414062 117.019531 79.871094 117.046875 79.523438 C 117.046875 79.515625 117.039062 79.515625 117.035156 79.515625 C 117.074219 79.441406 117.054688 79.324219 117.035156 79.25 C 117.039062 79.253906 117.046875 79.257812 117.054688 79.257812 C 117.058594 79.21875 117.042969 79.207031 117.050781 79.164062 C 117.066406 79.082031 117.035156 78.777344 117.035156 78.585938 C 117.039062 78.371094 117.015625 78.148438 116.992188 78.042969 C 117.046875 78.007812 117.027344 77.898438 117.027344 77.785156 C 117.027344 77.757812 117.050781 77.769531 117.054688 77.75 C 117.027344 77.6875 117.074219 77.519531 117.039062 77.453125 C 117.023438 77.449219 117.019531 77.457031 117.019531 77.480469 C 117 77.414062 117.027344 77.328125 117.011719 77.253906 C 117.007812 77.257812 117.007812 77.273438 116.996094 77.273438 C 117.003906 77.140625 117.03125 77.003906 117.0625 76.921875 C 117.050781 76.875 117.074219 76.847656 117.078125 76.808594 C 117.097656 76.695312 117.074219 76.523438 117.074219 76.390625 C 117.082031 75.976562 117.125 75.570312 117.113281 75.183594 C 117.117188 75.179688 117.117188 75.164062 117.128906 75.164062 C 117.132812 74.863281 117.117188 74.625 117.128906 74.328125 C 117.113281 74.324219 117.113281 74.347656 117.109375 74.367188 C 117.105469 74.292969 117.128906 74.222656 117.144531 74.160156 C 117.101562 74.09375 117.152344 74.042969 117.15625 73.949219 C 117.167969 73.945312 117.164062 73.96875 117.175781 73.96875 C 117.203125 73.660156 117.113281 73.382812 117.171875 73.066406 C 117.164062 73.054688 117.15625 73.035156 117.15625 73.007812 C 117.195312 73.019531 117.183594 73.105469 117.195312 73.152344 C 117.203125 73.007812 117.1875 72.832031 117.226562 72.660156 C 117.167969 72.597656 117.210938 72.425781 117.195312 72.289062 C 117.207031 72.285156 117.207031 72.296875 117.214844 72.296875 C 117.214844 72.253906 117.226562 72.226562 117.230469 72.183594 C 117.207031 72.183594 117.210938 72.21875 117.207031 72.25 C 117.179688 72.175781 117.234375 72.070312 117.175781 72.03125 C 117.183594 71.980469 117.1875 71.945312 117.164062 71.917969 C 117.175781 71.914062 117.175781 71.925781 117.183594 71.925781 C 117.226562 71.664062 117.230469 71.367188 117.238281 71.027344 C 117.214844 71.03125 117.226562 71.089844 117.214844 71.109375 C 117.191406 70.789062 117.292969 70.425781 117.234375 70.09375 C 117.214844 70.140625 117.214844 70.246094 117.207031 70.285156 C 117.203125 70.304688 117.210938 70.347656 117.199219 70.351562 C 117.203125 70.242188 117.1875 70.203125 117.191406 70.113281 C 117.183594 70.097656 117.171875 70.09375 117.171875 70.066406 C 117.183594 70.085938 117.191406 70.058594 117.210938 70.066406 C 117.21875 70.023438 117.203125 70.011719 117.199219 69.988281 C 117.226562 69.9375 117.21875 69.890625 117.203125 69.828125 C 117.273438 69.5 117.230469 69.078125 117.261719 68.707031 C 117.289062 68.796875 117.257812 68.929688 117.292969 69.011719 C 117.308594 68.996094 117.289062 68.917969 117.328125 68.9375 C 117.332031 68.898438 117.308594 68.898438 117.308594 68.859375 C 117.316406 68.847656 117.332031 68.847656 117.339844 68.863281 C 117.328125 68.785156 117.335938 68.640625 117.371094 68.546875 C 117.371094 68.578125 117.371094 68.605469 117.371094 68.632812 C 117.390625 68.4375 117.433594 68.132812 117.433594 67.902344 C 117.46875 67.882812 117.4375 67.863281 117.457031 67.789062 Z M 117.160156 74.613281 C 117.160156 74.566406 117.167969 74.519531 117.1875 74.558594 C 117.191406 74.519531 117.175781 74.507812 117.167969 74.480469 C 117.167969 74.523438 117.15625 74.503906 117.144531 74.492188 C 117.167969 74.527344 117.121094 74.609375 117.160156 74.613281 Z M 117.25 70 C 117.246094 70.011719 117.238281 70.019531 117.253906 70.019531 C 117.253906 69.96875 117.25 69.921875 117.257812 69.894531 C 117.230469 69.898438 117.234375 69.976562 117.25 70 Z M 117.332031 72.625 C 117.355469 72.632812 117.347656 72.570312 117.332031 72.574219 C 117.332031 72.597656 117.320312 72.605469 117.332031 72.625 Z M 117.347656 72.558594 C 117.34375 72.523438 117.355469 72.46875 117.339844 72.453125 C 117.335938 72.503906 117.320312 72.523438 117.347656 72.558594 Z M 117.601562 73.976562 C 117.621094 73.953125 117.601562 73.898438 117.625 73.894531 C 117.625 73.863281 117.605469 73.84375 117.617188 73.828125 C 117.609375 73.824219 117.601562 73.824219 117.59375 73.824219 C 117.597656 73.871094 117.59375 73.9375 117.601562 73.976562 Z M 118.03125 69.539062 C 118.023438 69.511719 118.027344 69.472656 118.007812 69.464844 C 118.007812 69.5 118 69.546875 118.03125 69.539062 Z M 118.078125 69.332031 C 118.070312 69.199219 118.058594 69.386719 118.074219 69.40625 C 118.074219 69.375 118.078125 69.351562 118.078125 69.332031 Z M 118.246094 77.953125 C 118.25 77.945312 118.253906 77.894531 118.234375 77.894531 C 118.234375 77.921875 118.226562 77.953125 118.246094 77.953125 Z M 118.664062 75.128906 C 118.640625 75.117188 118.636719 75.1875 118.648438 75.195312 C 118.644531 75.160156 118.671875 75.171875 118.664062 75.128906 Z M 118.664062 74.976562 C 118.679688 74.894531 118.671875 74.824219 118.675781 74.722656 C 118.667969 74.773438 118.644531 74.925781 118.664062 74.976562 Z M 118.683594 74.484375 C 118.679688 74.5 118.683594 74.515625 118.667969 74.511719 C 118.679688 74.570312 118.664062 74.65625 118.664062 74.703125 C 118.6875 74.597656 118.695312 74.550781 118.683594 74.484375 Z M 118.6875 75.480469 C 118.695312 75.546875 118.667969 75.636719 118.6875 75.664062 C 118.710938 75.550781 118.722656 75.304688 118.699219 75.179688 C 118.691406 75.277344 118.671875 75.339844 118.679688 75.433594 C 118.707031 75.363281 118.671875 75.5 118.675781 75.5 C 118.675781 75.492188 118.679688 75.488281 118.6875 75.480469 Z M 118.707031 74.417969 C 118.707031 74.394531 118.710938 74.375 118.710938 74.351562 C 118.683594 74.347656 118.699219 74.417969 118.707031 74.417969 Z M 118.699219 75.148438 C 118.699219 75.15625 118.699219 75.160156 118.707031 75.160156 C 118.710938 75.117188 118.707031 74.988281 118.699219 75.09375 C 118.6875 75.113281 118.707031 75.125 118.695312 75.140625 C 118.691406 75.140625 118.6875 75.140625 118.6875 75.148438 C 118.691406 75.148438 118.695312 75.148438 118.699219 75.148438 Z M 118.726562 75.691406 C 118.738281 75.703125 118.738281 75.726562 118.75 75.738281 C 118.765625 75.535156 118.765625 75.179688 118.765625 74.941406 C 118.726562 75.152344 118.753906 75.441406 118.726562 75.691406 Z M 119.164062 68.878906 C 119.207031 68.78125 119.222656 68.640625 119.222656 68.519531 C 119.210938 68.644531 119.148438 68.777344 119.164062 68.878906 Z M 119.21875 69.296875 C 119.238281 69.269531 119.234375 69.1875 119.21875 69.15625 C 119.234375 69.160156 119.242188 69.152344 119.246094 69.136719 C 119.234375 69.121094 119.234375 69.144531 119.222656 69.128906 C 119.195312 69.179688 119.207031 69.234375 119.21875 69.296875 Z M 119.21875 69.46875 C 119.21875 69.429688 119.230469 69.417969 119.226562 69.375 C 119.195312 69.375 119.207031 69.46875 119.21875 69.46875 Z M 119.292969 68.644531 C 119.300781 68.613281 119.296875 68.585938 119.300781 68.53125 C 119.273438 68.53125 119.289062 68.613281 119.292969 68.644531 Z M 119.34375 77.109375 C 119.355469 77.132812 119.332031 77.203125 119.347656 77.234375 C 119.367188 77.214844 119.367188 77.125 119.34375 77.109375 Z M 119.492188 72.980469 C 119.496094 73.015625 119.476562 73.035156 119.488281 73.058594 C 119.519531 73.023438 119.511719 72.941406 119.511719 72.875 C 119.511719 72.769531 119.5 72.667969 119.511719 72.5625 C 119.476562 72.664062 119.488281 72.902344 119.492188 72.980469 Z M 119.507812 72.410156 C 119.515625 72.371094 119.511719 72.269531 119.5 72.210938 C 119.507812 72.28125 119.472656 72.398438 119.507812 72.410156 Z M 119.507812 71.832031 C 119.535156 71.835938 119.503906 71.925781 119.53125 71.925781 C 119.542969 71.878906 119.535156 71.84375 119.527344 71.804688 C 119.542969 71.800781 119.546875 71.796875 119.566406 71.777344 C 119.515625 71.578125 119.609375 71.386719 119.558594 71.195312 C 119.527344 71.40625 119.550781 71.625 119.507812 71.832031 Z M 119.496094 73.578125 C 119.496094 73.628906 119.46875 73.6875 119.507812 73.710938 C 119.523438 73.542969 119.523438 73.371094 119.492188 73.199219 C 119.488281 73.324219 119.5 73.460938 119.496094 73.578125 Z M 119.496094 73.578125 " fill-opacity="1" fill-rule="evenodd"/></g></g></g></svg>